<svg xmlns="http://www.w3.org/2000/svg" version="1.1" xmlns:xlink="http://www.w3.org/1999/xlink" xmlns:svgjs="http://svgjs.dev/svgjs" width="183.6734693877551" height="50.16000000000002" viewBox="42.46698679471788 46.62 183.6734693877551 50.16000000000002"><rect width="1000" height="600" x="0" y="0" fill="#f5e7f4"></rect><g><rect width="333.3333333333333" height="333.3333333333333" rx="13.333333333333334" ry="13.333333333333334" y="228.3658039968709" fill="#222222" transform="matrix(0.6063734946881623,0,0,0.6063734946881623,0,60.46278008636543)" x="206.14356994628906"></rect><path d="M360.07728697844084 333.1067855250051L283.9351737857726 335.22558107762796Q282.9934868734958 335.22558107762796 282.2872216892882 334.9901593495588L282.2872216892882 334.9901593495588Q283.4643303296342 337.34437663025074 283.4643303296342 338.31969521796606L283.4643303296342 338.31969521796606L283.4643303296342 381.0991863756842Q284.6414389699802 383.0161918756763 290.3251921190796 382.8816651739225Q296.0089452681789 382.7471384721687 303.8114939699011 382.04087328796106Q311.6140426716233 381.33460810375345 320.3582782856223 379.8211827090229Q329.1025138996213 378.2741256388538 336.66964087327426 376.9624902967539Q344.23676784692725 375.6844866300926 349.214255811819 374.70916804237726L349.214255811819 374.70916804237726Q354.39353382934144 373.76748113010046 354.86437728547986 374.2383245862389L354.86437728547986 374.2383245862389Q355.5706424696875 374.2383245862389 357.58854299599494 374.1374295599235Q359.6064435223024 374.00290285816965 361.9606608029944 373.9020078318543Q364.3485097591249 373.76748113010046 366.23188358367855 373.6665861037851Q368.1152574082322 373.5320594020313 368.8215225924398 373.5320594020313L368.8215225924398 373.5320594020313Q368.8215225924398 379.2158125511306 362.5660309608867 382.7471384721687Q356.31053932933355 386.3120960686452 346.8264068556885 388.19546989319883Q337.37590605748187 390.0788437177524 326.3783481891062 391.1550573317831Q315.38079032073057 392.2312709458137 305.7957628207701 392.93753613002133Q296.2443669962481 393.64380131422894 289.618926934872 394.5854882265058L289.618926934872 394.5854882265058Q282.7580651454266 395.0563316826442 282.2872216892882 396.9397055071978L282.2872216892882 396.9397055071978Q280.87469132087296 400.7400848317435 280.2693211629807 405.44851939312764Q279.6639510050885 410.19058562995014 279.5630559787731 415.03354689308804Q279.42852927701927 419.87650815622595 279.5630559787731 424.75310109480233Q279.6639510050885 429.59606235794024 279.6639510050885 433.3628100070475L279.6639510050885 433.3628100070475Q279.6639510050885 434.3044969193243 279.6639510050885 436.6923458754548Q279.6639510050885 439.0465631561468 279.6639510050885 441.5353071385927Q279.6639510050885 444.0240511210386 279.6639510050885 446.2437416999768Q279.6639510050885 448.49706395435345 279.6639510050885 449.20332913856106L279.6639510050885 449.20332913856106Q280.63926959280377 451.5911780946916 283.9351737857726 452.7682867350376Q287.23107797874144 453.9453953753836 291.0314573032872 454.28171212976815Q294.7982049523944 454.6516605595912 298.12774082080176 454.41623883152204L298.12774082080176 454.41623883152204Q301.894488469909 454.1808171034528 303.3406505137627 454.1808171034528L303.3406505137627 454.1808171034528Q311.3786209435541 454.1808171034528 319.41659137334545 453.34002521749136Q327.45456180313687 452.53286500696834 335.3580055311744 451.69207312100696Q343.29508093465046 450.85128123504546 351.198524662688 450.0441210245225Q359.135600066164 449.20332913856106 367.1735704959554 449.20332913856106L367.1735704959554 449.20332913856106L368.5861008643706 449.20332913856106Q369.05694432050905 449.43875086663024 369.99863123278584 449.6741725946995Q370.94031814506263 449.9095943227687 372.01653175909325 450.3804377789071Q373.09274537312393 450.85128123504546 373.79901055733154 451.35575636662236L373.79901055733154 451.35575636662236Q374.7406974696084 451.8265998227607 375.21154092574676 451.8265998227607L375.21154092574676 451.8265998227607Q375.6823843818852 452.06202155082997 376.62407129416204 452.7682867350376L376.62407129416204 452.7682867350376Q377.56575820643883 453.239130191176 377.56575820643883 453.7099736473144L377.56575820643883 453.7099736473144Q377.56575820643883 458.18298648062927 372.6219019169855 461.14257391921353Q367.6444139520938 464.10216135779785 360.07728697844084 465.8846401560361Q352.51016000478785 467.6671189542743 343.53050266271964 468.47427916479734Q334.55084532065143 469.3150710507588 326.27745316279083 469.6513878051434Q317.9704293294918 470.0213362349664 312.0848861277617 470.0213362349664Q306.1657112505932 470.0213362349664 304.5177591541087 470.0213362349664L304.5177591541087 470.0213362349664Q295.0336266804636 470.0213362349664 287.8364481366337 468.3733841384819Q280.63926959280377 466.7254320419976 275.7626766542274 462.8241576911364Q270.9197153910895 458.92288334027535 268.5654981103974 452.2974432788992L268.5654981103974 452.2974432788992Q266.2112808297054 445.2011597613846 266.2112808297054 435.2461838316011L266.2112808297054 435.2461838316011Q266.2112808297054 426.2665264895329 267.4892844963668 417.2868691474647Q268.80091983846665 408.3072118053965 268.80091983846665 399.0921327352591L268.80091983846665 399.0921327352591Q268.80091983846665 395.2917534107134 267.6238111981206 392.70211440195214Q266.4467025577746 390.0788437177524 266.4467025577746 387.0183612528528L266.4467025577746 387.0183612528528L266.4467025577746 385.6058308844376Q266.917546013913 385.13498742829915 268.09465465425905 383.3525086300609Q269.271763294605 381.57002983182264 269.74260675074345 381.0991863756842L269.74260675074345 381.0991863756842L269.74260675074345 328.835562744321Q269.74260675074345 325.0688150952137 270.5833986367049 323.1854412706601Q271.3905588472279 321.268435770668 274.58556801388136 320.5621705864604Q277.78057718053486 319.8559054022528 283.56522535594956 320.091327130322Q289.38350520680274 320.32674885839117 299.40574448746315 320.7975923145296Q309.461615443562 321.268435770668 324.12502593472954 321.5038574987372L324.12502593472954 321.5038574987372Q339.2592798820355 321.7392792268064 360.07728697844084 321.5038574987372L360.07728697844084 321.5038574987372Q362.43150425913285 322.4791760864525 364.81935321526333 323.5217580250447Q367.1735704959554 324.5979716390753 369.1914710222629 326.24592373555976Q371.1757398731319 327.89387583204416 372.3864801889163 330.04630306010546Q373.56358882926236 332.1650986127283 373.56358882926236 335.22558107762796L373.56358882926236 335.22558107762796Q373.56358882926236 335.9318462618356 372.7227969433009 336.87353317411237Q371.91563673277795 337.84885176182763 371.44479327663953 337.61343003375845L371.44479327663953 337.61343003375845L360.07728697844084 333.1067855250051ZM391.05206005726035 385.6058308844376L391.05206005726035 385.6058308844376Q391.28748178532953 384.89956570022997 391.75832524146796 383.8233520861993Q392.2291686976064 382.7471384721687 393.0699605835678 381.57002983182264Q393.8771207940908 380.39292119147666 394.7179126800522 379.58576098095364Q395.5587045660137 378.7449690949922 396.7358132063597 378.7449690949922L396.7358132063597 378.7449690949922Q396.97123493442894 378.7449690949922 396.97123493442894 378.84586412130756Q396.97123493442894 378.9803908230614 397.4420783905673 378.9803908230614L397.4420783905673 378.9803908230614L397.91292184670573 378.9803908230614Q403.36125326773583 381.57002983182264 406.89257918877394 386.41299109496055Q410.45753678525045 391.2895840335369 413.18170249576553 397.4105489633362Q415.87223653084214 403.565145568574 418.2600854869726 410.5605340597732Q420.61430276766464 417.52229087553394 423.57389020624896 424.24862596322544Q426.5334776448332 431.00859272635546 430.5356470220097 437.3986110596624Q434.57144807462464 443.78862939296937 440.72604467986235 448.73248568242263L440.72604467986235 448.73248568242263Q442.84484023248524 441.63620216490807 444.96363578510807 434.9098670772165Q447.1160630131693 428.14990031408655 449.806597048246 421.32267020007964Q452.53076275876106 414.46180841063426 456.1966153815529 407.1301031650505Q459.8624680043448 399.7983979194667 464.60453424116736 391.2895840335369L464.60453424116736 391.2895840335369Q470.28828739026665 388.90173507740644 473.71871828498934 388.430891621268Q477.1155175042736 387.9600481651296 478.56167954812724 389.27168350722945Q479.9742099165425 390.5833188493293 479.0325230042657 393.17295785809057Q478.0908360919889 395.76259686685177 474.9967219516508 399.3275544633283L474.9967219516508 399.3275544633283Q473.1133481270971 400.97550655981274 470.62460414465124 406.8946814369813Q468.1358601622054 412.7802246387114 465.31079942537497 420.8518267439412Q462.48573868854453 428.88979717373263 459.290729521891 437.6340327877316Q456.0957203552375 446.3782684017306 452.7661844868302 453.57544694556054Q449.4702802938614 460.80625716482893 446.27527112720793 465.514691726213Q443.0802619605544 470.2567579630356 440.0197794956548 470.0213362349664L440.0197794956548 470.0213362349664Q436.69024362724747 470.0213362349664 432.55354754831717 464.94295324375923Q428.41685146938687 459.8645702525522 423.6747852325643 451.8265998227607Q418.96635067118024 443.78862939296937 414.22428443435774 434.2036018930089Q409.51584987297366 424.6185743930485 405.11010039053565 415.16807359484187Q400.7379825835362 405.7175727966353 397.0721299607443 397.78049739315924Q393.40627733795236 389.84342198968324 391.05206005726035 385.6058308844376Z " fill="#00ffff" transform="matrix(0.6063734946881623,0,0,0.6063734946881623,0,60.46278008636543)"></path><path d="M676.4558075011449 342.73236987372854L632.939662445279 343.943287337739Q632.4014769057188 343.943287337739 631.9978377510487 343.8087409528489L631.9978377510487 343.8087409528489Q632.6705696754989 345.15420480174936 632.6705696754989 345.7116112534367L632.6705696754989 345.7116112534367L632.6705696754989 370.1606114791706Q633.3433015999492 371.2562034704181 636.5916357494373 371.1793198219095Q639.8399698989256 371.10243617340086 644.2992215124242 370.6987970187308Q648.7584731259228 370.2951578640606 653.7559102789817 369.4302168183389Q658.7533474320405 368.54605486049 663.0780526606491 367.7964392875312Q667.4027578892576 367.0660446266995 670.2474528840758 366.5086381750122L670.2474528840758 366.5086381750122Q673.2074733516567 365.97045263545203 673.4765661214368 366.2395454052321L673.4765661214368 366.2395454052321Q673.880205276107 366.2395454052321 675.0334600037359 366.1818826688507Q676.1867147313649 366.10499902034206 677.5321785802653 366.0473362839606Q678.8968633412928 365.97045263545203 679.9732344204133 365.91278989907056Q681.0496054995336 365.835906250562 681.4532446542038 365.835906250562L681.4532446542038 365.835906250562Q681.4532446542038 369.0842404000502 677.878154998554 371.10243617340086Q674.3030653429042 373.1398528588787 668.8827681230482 374.2162239379991Q663.4816918153192 375.2925950171194 657.1964535497414 375.9076642051882Q650.9112152841635 376.522733393257 645.433255327926 376.92637254792714Q639.9745162838155 377.33001170259723 636.1879965947672 377.8681972421574L636.1879965947672 377.8681972421574Q632.2669305208287 378.1372900119375 631.9978377510487 379.2136610910579L631.9978377510487 379.2136610910579Q631.1905594417084 381.38562416142577 630.8445830234198 384.07655185922664Q630.498606605131 386.7867004691547 630.4409438687496 389.5545118154642Q630.364060220241 392.3223231617737 630.4409438687496 395.1093554202103Q630.498606605131 397.87716676651985 630.498606605131 400.02990892476055L630.498606605131 400.02990892476055Q630.498606605131 400.5680944643207 630.498606605131 401.9327792253483Q630.498606605131 403.27824307424873 630.498606605131 404.7005905716578Q630.498606605131 406.1229380690669 630.498606605131 407.39151826945874Q630.498606605131 408.67931938197773 630.498606605131 409.0829585366479L630.498606605131 409.0829585366479Q631.0560130568183 410.4476432976754 632.939662445279 411.1203752221257Q634.8233118337396 411.7931071465759 636.9952749041074 411.9853162678474Q639.1480170623482 412.19674630124604 641.050887362936 412.062199916356L641.050887362936 412.062199916356Q643.2036295211767 411.9276535314659 644.0301287426441 411.9276535314659L644.0301287426441 411.9276535314659Q648.6239267410328 411.9276535314659 653.2177247394216 411.4471307282872Q657.8115227378102 410.98582883723566 662.3284370876902 410.5053060340569Q666.8645723496975 410.02478323087814 671.3814866995775 409.5634813398266Q675.9176219615847 409.0829585366479 680.5114199599734 409.0829585366479L680.5114199599734 409.0829585366479L681.3186982693137 409.0829585366479Q681.5877910390939 409.2175049215379 682.125976578654 409.35205130642794Q682.6641621182141 409.486597691318 683.279231306283 409.7556904610981Q683.8943004943517 410.02478323087814 684.2979396490218 410.3130969127854L684.2979396490218 410.3130969127854Q684.836125188582 410.5821896825655 685.1052179583621 410.5821896825655L685.1052179583621 410.5821896825655Q685.3743107281423 410.71673606745554 685.9124962677024 411.1203752221257L685.9124962677024 411.1203752221257Q686.4506818072625 411.38946799190575 686.4506818072625 411.65856076168586L686.4506818072625 411.65856076168586Q686.4506818072625 414.2149420745967 683.6252077245716 415.90638234178584Q680.7805127297536 417.597822608975 676.4558075011449 418.6165309517139Q672.1311022725363 419.6352392944528 666.9991187345875 420.0965411855044Q661.8671351966386 420.5770639886831 657.13879081336 420.7692731099546Q652.3912255179541 420.98070314335325 649.027565895703 420.98070314335325Q645.6446853613247 420.98070314335325 644.7028606670943 420.98070314335325L644.7028606670943 420.98070314335325Q639.2825634472383 420.98070314335325 635.1692882520283 420.03887844912293Q631.0560130568183 419.0970537548926 628.2689807983818 416.8674279481433Q625.5011694520722 414.637802141394 624.1557056031718 410.8512824523456L624.1557056031718 410.8512824523456Q622.8102417542714 406.7956699935171 622.8102417542714 401.1062800038809L622.8102417542714 401.1062800038809Q622.8102417542714 395.97429646593207 623.540636415103 390.8423129279832Q624.2902519880618 385.7103293900343 624.2902519880618 380.44379946719545L624.2902519880618 380.44379946719545Q624.2902519880618 378.27183639682755 623.6175200636117 376.79182616303706Q622.9447881391613 375.2925950171194 622.9447881391613 373.54349201354887L622.9447881391613 373.54349201354887L622.9447881391613 372.7362137042086Q623.2138809089415 372.46712093442846 623.8866128333916 371.4484125916896Q624.5593447578419 370.42970424895066 624.828437527622 370.1606114791706L624.828437527622 370.1606114791706L624.828437527622 340.2913140335806Q624.828437527622 338.1385718753399 625.3089603308008 337.0622007962195Q625.7702622218524 335.966608804972 627.5962488739315 335.56296965030185Q629.4222355260107 335.1593304956317 632.7282324118803 335.2938768805218Q636.0534502098772 335.4284232654118 641.7812820237676 335.69751603519194Q647.5283347497852 335.966608804972 655.9086524372224 336.1011551898621L655.9086524372224 336.1011551898621Q664.5580628944396 336.23570157475206 676.4558075011449 336.1011551898621L676.4558075011449 336.1011551898621Q677.8012713500455 336.6585616415494 679.165956111073 337.254409917491Q680.5114199599734 337.8694791055598 681.6646746876024 338.8113037997901Q682.7987085031042 339.7531284940204 683.4906613396815 340.983266870158Q684.1633932641319 342.19418433416837 684.1633932641319 343.943287337739L684.1633932641319 343.943287337739Q684.1633932641319 344.3469264924091 683.682870460953 344.88511203196924Q683.2215685699015 345.4425184836566 682.9524758001214 345.3079720987665L682.9524758001214 345.3079720987665L676.4558075011449 342.73236987372854ZM694.1582675702494 372.7362137042086L694.1582675702494 372.7362137042086Q694.2928139551395 372.33257454953844 694.5619067249196 371.71750536146965Q694.8309994946997 371.10243617340086 695.3115222978784 370.42970424895066Q695.7728241889299 369.75697232450045 696.2533469921086 369.29567043344883Q696.7338697952874 368.81514763027013 697.4066017197376 368.81514763027013L697.4066017197376 368.81514763027013Q697.5411481046277 368.81514763027013 697.5411481046277 368.87281036665155Q697.5411481046277 368.94969401516016 697.8102408744078 368.94969401516016L697.8102408744078 368.94969401516016L698.079333644188 368.94969401516016Q701.193121408786 370.42970424895066 703.2113171821368 373.19751559526014Q705.2487338676145 375.98454785369677 706.8056277499136 379.482753860838Q708.3433007200856 383.0001807801063 709.7079854811132 386.99813050255335Q711.0534493300136 390.9768593128732 712.7448895972027 394.82104173830305Q714.4363298643918 398.6844450758601 716.7236184075227 402.3364183800185Q719.0301278627805 405.9883916841768 722.5475547820489 408.81386576686776L722.5475547820489 408.81386576686776Q723.7584722460593 404.75825330803923 724.9693897100697 400.9140708826094Q726.1995280862072 397.0506675450524 727.7372010563791 393.1488223832411Q729.2940949386783 389.22775630930266 731.3891743605376 385.0375974655841Q733.4842537823969 380.84743862186554 736.1944023923248 375.98454785369677L736.1944023923248 375.98454785369677Q739.4427365418131 374.6198630926692 741.4032695787823 374.3507703228891Q743.3445817036244 374.081677553109 744.1710809250918 374.83129312606786Q744.9783592344321 375.5809086990267 744.440173694872 377.0609189328172Q743.9019881553118 378.54092916660767 742.133664239614 380.5783458520855L742.133664239614 380.5783458520855Q741.0572931604937 381.5201705463158 739.6349456630846 384.90305108069407Q738.2125981656756 388.2667107029452 736.598041546995 392.879729613461Q734.9834849283145 397.4735276118497 733.1574982762353 402.4709647649085Q731.3315116241561 407.4684019179673 729.4286413235683 411.58167711317725Q727.5449919351078 415.71417322051434 725.7190052830285 418.40510091831527Q723.8930186309493 421.1152495282433 722.1439156273788 420.98070314335325L722.1439156273788 420.98070314335325Q720.241045326791 420.98070314335325 717.8768731351516 418.0783454121537Q715.5127009435123 415.17598768095417 712.8025523335842 410.5821896825655Q710.1116246357833 405.9883916841768 707.4014760258553 400.51043172793925Q704.7105483280543 395.0324717717017 702.1926088393978 389.6313954639728Q699.6938902628684 384.2303191562438 697.5988108410091 379.69418389423663Q695.5037314191499 375.1580486322294 694.1582675702494 372.7362137042086ZM749.3030644630406 384.63395831091395L749.3030644630406 384.63395831091395Q749.3030644630406 377.59910447237735 751.3981438848999 371.1793198219095Q753.4932233067592 364.7595351714416 757.4719521170791 359.89664440327283Q761.4699018395262 355.03375363510406 767.1977336534167 352.13139590390455Q772.9447863794343 349.2098172605779 780.5178257575311 349.2098172605779L780.5178257575311 349.2098172605779Q784.9770773710297 349.7672237122652 788.2830742568995 351.6508731007258Q791.6082920548962 353.53452248918643 793.7033714767555 356.3215547476231Q795.7984508986148 359.0893660939326 796.7402755928451 362.74133939809093L796.7402755928451 362.74133939809093Q797.5475539021853 366.2395454052321 797.5475539021853 370.2951578640606L797.5475539021853 370.2951578640606Q797.5475539021853 375.1580486322294 794.7028589073673 379.07911470616784Q791.8773848246764 383.0001807801063 787.5526795960677 385.63344574152575Q783.2279743674592 388.2667107029452 778.2305372144003 389.6890582003542Q773.2138791492144 391.1114056977633 768.8891739206058 391.1114056977633L768.8891739206058 391.1114056977633Q767.2746173019252 391.1114056977633 765.5831770347362 391.1114056977633Q763.891736767547 391.1114056977633 762.5462729186465 390.57322015820307Q761.2008090697461 390.03503461864295 760.3743098482787 388.95866353952255Q759.5670315389384 387.86307154827506 759.5670315389384 385.7103293900343L759.5670315389384 385.7103293900343Q759.5670315389384 385.0375974655841 759.778461572337 384.5570746624054Q759.9706706936086 384.07655185922664 760.9317162999661 383.88434273795514Q761.8735409941963 383.6729127045565 763.757190382657 383.8074590894466L763.757190382657 383.8074590894466Q765.6600606832448 384.07655185922664 768.8891739206058 384.63395831091395L768.8891739206058 384.63395831091395Q770.7920442211936 384.63395831091395 774.3671338768434 383.34615719839496Q777.9422235324931 382.05835608587597 781.67108048516 380.0401603125253Q785.3807165256999 378.0027436270475 788.090865135628 375.36947866562804Q790.7817928334289 372.7362137042086 790.7817928334289 370.1606114791706L790.7817928334289 370.1606114791706Q790.7817928334289 367.46968378136967 789.9168517877071 364.8364188199502Q789.0326898298582 362.1839329464036 787.2835868262877 360.16573717305295Q785.51526291059 358.12832048757514 783.1510907189505 356.9174030235647Q780.7869185273112 355.7064855595543 777.807677147603 355.9755783293344L777.807677147603 355.9755783293344Q773.0793327643244 356.3792174840045 769.2351503388944 358.5511805543724Q765.3909679134646 360.7039227126131 762.6808193035366 364.14446598337287Q759.9706706936086 367.6042301662597 758.4906604598181 371.79438900997826Q757.0106502260276 375.98454785369677 757.0106502260276 380.5783458520855L757.0106502260276 380.5783458520855Q757.0106502260276 384.07655185922664 757.1451966109177 387.59397877849494Q757.2797429958076 391.1114056977633 758.1446840415293 394.4942862321416Q759.0288459993782 397.87716676651985 760.9893790363475 400.9717336189908Q762.9499120733167 404.085521383589 766.6595481138564 406.44969357522837Q770.3884050665234 408.81386576686776 776.0585741440325 410.37075964916687Q781.7287432215415 411.9276535314659 790.1090609089786 412.33129268613607L790.1090609089786 412.33129268613607L814.3081892770596 410.71673606745554Q812.1362262066917 413.67675653503653 808.830229320822 415.5796268356243Q805.5242324349523 417.46327622408495 801.7953754822853 418.6165309517139Q798.0857394417455 419.7697856793428 794.4337661375872 420.30797121890305Q790.7817928334289 420.8461567584632 787.5526795960677 420.8461567584632L787.5526795960677 420.8461567584632Q779.7105474481908 420.8461567584632 772.8102399945443 418.2705545334252Q765.9291534530248 415.71417322051434 760.6434026180588 411.0434915736171Q755.3768726952198 406.39203083884695 752.3399685791303 399.703153418599Q749.3030644630406 393.014275998351 749.3030644630406 384.63395831091395ZM832.9524740403943 420.8461567584632L832.9524740403943 420.8461567584632Q829.9924535728134 415.4450804507343 827.8204905024455 409.0829585366479Q825.6677483442048 402.7400575346886 824.1685171982871 396.24338923571213Q822.6885069644966 389.76594184886284 821.8043450066477 383.615249968175Q820.9201830487989 377.46455808748726 820.6510902790188 372.46712093442846L820.6510902790188 372.46712093442846Q820.6510902790188 371.52529624019814 820.5165438941287 370.3720415125692Q820.3819975092387 369.2187867849403 820.4588811577473 368.00786932092984Q820.5165438941287 366.7777309447923 820.8625203124174 365.7013598656719Q821.189275818579 364.62498878655157 822.0157750400464 363.8177104772113L822.0157750400464 363.8177104772113L822.2848678098266 363.8177104772113Q822.4194141947165 363.8177104772113 822.4194141947165 363.7408268287027Q822.4194141947165 363.68316409232125 822.5539605796066 363.68316409232125L822.5539605796066 363.68316409232125Q822.6885069644966 363.68316409232125 822.6885069644966 363.7408268287027Q822.6885069644966 363.8177104772113 822.9575997342768 363.8177104772113L822.9575997342768 363.8177104772113L823.2266925040568 363.8177104772113Q823.4957852738369 363.95225686210136 824.5721563529572 364.3558960167715Q825.6677483442048 364.7595351714416 825.9368411139849 365.0286279412217L825.9368411139849 365.0286279412217Q828.3586760420056 364.2213496318814 830.9342782670436 363.06809490425246Q833.4906595799545 361.91484017662356 836.1239245413739 360.91535274601176Q838.7764104149205 359.89664440327283 841.4673381127214 359.2239124788226Q844.1774867226495 358.5511805543724 846.7338680355604 358.5511805543724L846.7338680355604 358.5511805543724Q848.6367383361481 358.5511805543724 850.0590858335571 358.68572693926245Q851.4622124188392 358.8202733241525 852.8845599162481 359.147028830314Q854.3069074136572 359.4930052486027 855.9406849444648 359.9543071396543Q857.5552415631454 360.43482994283306 859.7079837213861 361.10756186728327L859.7079837213861 361.10756186728327Q860.8035757126337 361.91484017662356 861.6685167583554 362.6644557495824Q862.5526787162042 363.4140713225412 863.302294289163 364.3558960167715Q864.0326889499947 365.29772071100183 864.4363281046648 366.64318455990224Q864.8591881714622 368.00786932092984 864.8591881714622 370.1606114791706L864.8591881714622 370.1606114791706Q862.6872251010942 370.42970424895066 859.7848673698946 369.833855973009Q856.8825096386952 369.2187867849403 853.6918382255884 368.27696209070996Q850.5203877246088 367.33513739647964 847.1375071902305 366.64318455990224Q843.7738475679794 365.97045263545203 840.6600598033812 366.10499902034206Q837.5462720387831 366.2395454052321 834.8553443409821 367.8733229360398L834.8553443409821 367.8733229360398Q832.010649346164 369.2187867849403 829.8386862757961 372.7362137042086L829.8386862757961 372.7362137042086Q828.8968615815658 376.65727977814703 829.0314079664558 380.44379946719545Q829.1659543513459 384.2303191562438 829.9924535728134 387.8054088118936Q830.7997318821537 391.38049846754336 832.0683120825455 394.9748090353203Q833.3561131950645 398.54989869097005 834.5093679226934 402.12498834661983Q835.6626226503223 405.7000780022696 836.6044473445527 409.2175049215379Q837.5462720387831 412.7349318408062 837.8153648085631 416.38690514496454L837.8153648085631 416.38690514496454Q837.8153648085631 417.732368993865 836.3353545747726 419.2892628761641Q834.8553443409821 420.8461567584632 832.9524740403943 420.8461567584632ZM932.824333453062 420.8461567584632L932.824333453062 420.8461567584632Q929.864312985481 415.4450804507343 927.6923499151131 409.0829585366479Q925.5396077568724 402.7400575346886 924.0403766109547 396.24338923571213Q922.5603663771642 389.76594184886284 921.6762044193155 383.615249968175Q920.8112633735936 377.46455808748726 920.5229496916864 372.46712093442846L920.5229496916864 372.46712093442846Q920.5229496916864 371.52529624019814 920.3884033067964 370.3720415125692Q920.2538569219063 369.2187867849403 920.330740570415 368.00786932092984Q920.3884033067964 366.7777309447923 920.7343797250851 365.7013598656719Q921.0803561433737 364.62498878655157 921.887634452714 363.8177104772113L921.887634452714 363.8177104772113L922.1567272224942 363.8177104772113Q922.2912736073841 363.8177104772113 922.2912736073841 363.7408268287027Q922.2912736073841 363.68316409232125 922.4258199922741 363.68316409232125L922.4258199922741 363.68316409232125Q922.5603663771642 363.68316409232125 922.5603663771642 363.7408268287027Q922.5603663771642 363.8177104772113 922.8294591469443 363.8177104772113L922.8294591469443 363.8177104772113L923.0985519167244 363.8177104772113Q923.3676446865046 363.95225686210136 924.4440157656248 364.3558960167715Q925.5396077568724 364.7595351714416 925.8087005266524 365.0286279412217L925.8087005266524 365.0286279412217Q928.2305354546733 364.2213496318814 930.8061376797112 363.06809490425246Q933.3625189926221 361.91484017662356 936.0150048661686 360.91535274601176Q938.6482698275883 359.89664440327283 941.3391975253891 359.2239124788226Q944.049346135317 358.5511805543724 946.6057274482281 358.5511805543724L946.6057274482281 358.5511805543724Q948.5085977488158 358.5511805543724 949.9309452462248 358.68572693926245Q951.3532927436339 358.8202733241525 952.7564193289157 359.147028830314Q954.1787668263248 359.4930052486027 955.8125443571324 359.9543071396543Q957.427100975813 360.43482994283306 959.5798431340537 361.10756186728327L959.5798431340537 361.10756186728327Q960.6754351253013 361.91484017662356 961.540376171023 362.6644557495824Q962.4245381288719 363.4140713225412 963.1741537018306 364.3558960167715Q963.9045483626622 365.29772071100183 964.3274084294596 366.64318455990224Q964.7310475841297 368.00786932092984 964.7310475841297 370.1606114791706L964.7310475841297 370.1606114791706Q962.5590845137618 370.42970424895066 959.6567267825623 369.833855973009Q956.7543690513628 369.2187867849403 953.5829185503832 368.27696209070996Q950.3922471372764 367.33513739647964 947.0285875150254 366.64318455990224Q943.645706980647 365.97045263545203 940.5319192160488 366.10499902034206Q937.4181314514507 366.2395454052321 934.7272037536497 367.8733229360398L934.7272037536497 367.8733229360398Q931.8825087588317 369.2187867849403 929.729766600591 372.7362137042086L929.729766600591 372.7362137042086Q928.7687209942335 376.65727977814703 928.9032673791236 380.44379946719545Q929.0378137640135 384.2303191562438 929.864312985481 387.8054088118936Q930.6715912948213 391.38049846754336 931.9593924073403 394.9748090353203Q933.2279726077321 398.54989869097005 934.381227335361 402.12498834661983Q935.5344820629899 405.7000780022696 936.4763067572204 409.2175049215379Q937.4181314514507 412.7349318408062 937.6872242212307 416.38690514496454L937.6872242212307 416.38690514496454Q937.6872242212307 417.732368993865 936.2072139874402 419.2892628761641Q934.7272037536497 420.8461567584632 932.824333453062 420.8461567584632ZM968.5175672731781 384.63395831091395L968.5175672731781 384.63395831091395Q968.5175672731781 377.59910447237735 970.6126466950374 371.1793198219095Q972.7077261168967 364.7595351714416 976.6864549272166 359.89664440327283Q980.6651837375365 355.03375363510406 986.4122364635541 352.13139590390455Q992.1592891895717 349.2098172605779 999.7323285676686 349.2098172605779L999.7323285676686 349.2098172605779Q1004.1915801811672 349.7672237122652 1007.4975770670369 351.6508731007258Q1010.8035739529065 353.53452248918643 1012.8986533747658 356.3215547476231Q1014.9937327966251 359.0893660939326 1015.9547784029825 362.74133939809093L1015.9547784029825 362.74133939809093Q1016.7620567123228 366.2395454052321 1016.7620567123228 370.2951578640606L1016.7620567123228 370.2951578640606Q1016.7620567123228 375.1580486322294 1013.9173617175047 379.07911470616784Q1011.0726667226867 383.0001807801063 1006.747961494078 385.63344574152575Q1002.4232562654694 388.2667107029452 997.4258191124107 389.6890582003542Q992.4283819593519 391.1114056977633 988.1036767307432 391.1114056977633L988.1036767307432 391.1114056977633Q986.4891201120628 391.1114056977633 984.7976798448736 391.1114056977633Q983.1062395776845 391.1114056977633 981.760775728784 390.57322015820307Q980.3960909677563 390.03503461864295 979.5888126584161 388.95866353952255Q978.7815343490759 387.86307154827506 978.7815343490759 385.7103293900343L978.7815343490759 385.7103293900343Q978.7815343490759 385.0375974655841 978.9737434703474 384.5570746624054Q979.185173503746 384.07655185922664 980.1269981979764 383.88434273795514Q981.0688228922066 383.6729127045565 982.9716931927944 383.8074590894466L982.9716931927944 383.8074590894466Q984.8553425812551 384.07655185922664 988.1036767307432 384.63395831091395L988.1036767307432 384.63395831091395Q990.006547031331 384.63395831091395 993.5816366869808 383.34615719839496Q997.1567263426306 382.05835608587597 1000.8855832952976 380.0401603125253Q1004.5952193358374 378.0027436270475 1007.3053679457654 375.36947866562804Q1009.9962956435662 372.7362137042086 1009.9962956435662 370.1606114791706L1009.9962956435662 370.1606114791706Q1009.9962956435662 367.46968378136967 1009.1121336857174 364.8364188199502Q1008.2471926399957 362.1839329464036 1006.478868724298 360.16573717305295Q1004.7297657207274 358.12832048757514 1002.365593529088 356.9174030235647Q1000.0014213374487 355.7064855595543 997.0221799577406 355.9755783293344L997.0221799577406 355.9755783293344Q992.2938355744618 356.3792174840045 988.449653149032 358.5511805543724Q984.5862498114749 360.7039227126131 981.8953221136741 364.14446598337287Q979.185173503746 367.6042301662597 977.7051632699555 371.79438900997826Q976.2059321240379 375.98454785369677 976.2059321240379 380.5783458520855L976.2059321240379 380.5783458520855Q976.2059321240379 384.07655185922664 976.340478508928 387.59397877849494Q976.4750248938179 391.1114056977633 977.3591868516668 394.4942862321416Q978.2433488095156 397.87716676651985 980.2038818464849 400.9717336189908Q982.1644148834542 404.085521383589 985.8740509239939 406.44969357522837Q989.5836869645337 408.81386576686776 995.2730769541699 410.37075964916687Q1000.943246031679 411.9276535314659 1009.3235637191161 412.33129268613607L1009.3235637191161 412.33129268613607L1033.522692087197 410.71673606745554Q1031.350729016829 413.67675653503653 1028.0447321309593 415.5796268356243Q1024.7387352450896 417.46327622408495 1021.0098782924227 418.6165309517139Q1017.300242251883 419.7697856793428 1013.6482689477247 420.30797121890305Q1009.9962956435662 420.8461567584632 1006.747961494078 420.8461567584632L1006.747961494078 420.8461567584632Q998.9250502583283 420.8461567584632 992.0247428046818 418.2705545334252Q985.1244353510352 415.71417322051434 979.8579054281962 411.0434915736171Q974.5913755053574 406.39203083884695 971.5544713892677 399.703153418599Q968.5175672731781 393.014275998351 968.5175672731781 384.63395831091395ZM1039.8655930891564 398.0117131514099L1039.8655930891564 398.0117131514099Q1040.0001394740461 395.70520369615195 1041.2110569380566 392.7259623164438Q1042.4411953141944 389.76594184886284 1044.997576627105 386.92124685404474Q1047.573178852143 384.07655185922664 1051.4942449260816 381.84692605247733Q1055.4153110000202 379.617300245728 1060.7395036592402 378.6754755514977Q1066.082917230588 377.7336508572674 1072.9063410357257 378.54092916660767Q1079.729764840864 379.3482074759479 1088.110082528301 382.59654162543615L1088.110082528301 382.59654162543615Q1088.110082528301 382.4619952405461 1088.110082528301 381.2510777765357L1088.110082528301 381.2510777765357L1087.9755361434109 380.0401603125253Q1087.9755361434109 376.522733393257 1085.9573403700601 372.8707600890986Q1083.9199236845825 369.2187867849403 1080.748473183603 366.3164290537407Q1077.577022682623 363.4140713225412 1073.9250493784648 361.58808467046197Q1070.2730760743063 359.7620980183828 1066.8901955399283 359.7620980183828L1066.8901955399283 359.7620980183828Q1065.5447316910277 359.7620980183828 1064.5260233482886 360.16573717305295Q1063.526535917677 360.5693763277231 1062.5654903113195 361.1844455157919Q1061.623665617089 361.78029379173347 1060.7395036592402 362.2608165949122Q1059.8745626135187 362.74133939809093 1058.6444242373811 362.74133939809093L1058.6444242373811 362.74133939809093Q1058.375331467601 362.74133939809093 1058.375331467601 362.6067930132009L1058.375331467601 362.6067930132009Q1058.2407850827108 362.45302571618373 1058.106238697821 362.31847933129364L1058.106238697821 362.31847933129364Q1057.8371459280409 362.0493865615136 1057.3758440369893 361.64574740684344Q1056.8953212338106 361.2421082521733 1056.8953212338106 361.10756186728327L1056.8953212338106 361.10756186728327Q1056.8953212338106 358.68572693926245 1057.7794831916594 356.9174030235647Q1058.6444242373811 355.16830001999415 1060.2013181196803 354.0919289408738Q1061.7582120019792 352.99633694962625 1063.7187450389483 352.40048867368466Q1065.6792780759179 351.7854194856159 1067.8512411462857 351.7854194856159L1067.8512411462857 351.7854194856159Q1073.2523174540147 352.32360502517605 1078.1728709585648 355.09141637148554Q1083.1126453752422 357.859227717795 1087.2259205704522 362.0493865615136Q1091.3584166777891 366.2395454052321 1094.4722044423875 371.71750536146965Q1097.5667712948584 377.1954653177072 1099.6618507167177 383.0770644286149Q1101.756930138577 388.95866353952255 1102.4488829751544 394.89792538681166L1102.4488829751544 394.89792538681166Q1103.2561612844947 401.1062800038809 1102.5834293600442 406.526577223737L1102.5834293600442 406.526577223737Q1102.4488829751544 406.526577223737 1101.756930138577 406.44969357522837Q1101.0841982141267 406.39203083884695 1100.2769199047866 406.31514719033834Q1099.4696415954463 406.25748445395686 1098.931456055886 406.1229380690669L1098.931456055886 406.1229380690669L1098.2587241314359 405.9883916841768Q1095.4140291366175 399.6262697700904 1091.8966022173495 395.70520369615195Q1088.379175298081 391.7841376222135 1084.9386320273213 389.5545118154642Q1081.4980887565616 387.3248860087149 1078.5188473768535 386.4599449629932Q1075.5396059971454 385.5757830051443 1073.6559566086848 385.1721438504742L1073.6559566086848 385.1721438504742Q1071.6185399232068 385.1721438504742 1068.8507285768974 385.44123662025424Q1066.082917230588 385.7103293900343 1063.1036758508799 386.38306131448456Q1060.1436553832987 387.05579323893477 1057.1067512672091 388.20904796656373Q1054.0506262389924 389.3623026941927 1051.686454047353 390.9768593128732Q1049.3222818557138 392.5914159315538 1047.8999343583046 394.82104173830305Q1046.4968077730227 397.0506675450524 1046.4968077730227 400.02990892476055L1046.4968077730227 400.02990892476055Q1046.4968077730227 403.27824307424873 1049.0531890859336 405.5078688809981Q1051.6287913109718 407.7374946877474 1055.28076461513 409.15984218515644Q1058.9135170071613 410.5821896825655 1062.7000366962097 411.1203752221257Q1066.4865563852582 411.65856076168586 1068.7930658405157 411.65856076168586L1068.7930658405157 411.65856076168586Q1072.5795855295642 411.65856076168586 1076.2123379215955 411.2549216070157Q1079.864311225754 410.8512824523456 1083.4586217935307 410.3130969127854Q1087.0337114491806 409.7556904610981 1090.5511383684488 409.35205130642794Q1094.0685652877173 408.9484121517578 1097.5667712948584 408.9484121517578L1097.5667712948584 408.9484121517578Q1097.8358640646384 408.9484121517578 1098.5278169012158 408.9484121517578Q1099.200548825666 408.9484121517578 1099.9309434864977 409.0252958002664Q1100.6805590594565 409.0829585366479 1101.2956282475252 409.0829585366479Q1101.891476523467 409.0829585366479 1102.1605692932471 409.0829585366479L1102.1605692932471 409.0829585366479Q1103.2561612844947 409.486597691318 1103.3907076693845 410.3130969127854Q1103.5252540542747 411.1203752221257 1103.5252540542747 411.9276535314659L1103.5252540542747 411.9276535314659Q1103.5252540542747 412.7349318408062 1101.8338137870855 413.67675653503653Q1100.1423735198964 414.637802141394 1097.4322249099682 415.5796268356243Q1094.7412972121674 416.52145152985463 1091.4160794141708 417.54015987259356Q1088.110082528301 418.5396473032053 1085.0731784122113 419.23160013978264Q1082.0362742961217 419.9043320642329 1079.4030093347023 420.36563395528447Q1076.7697443732827 420.8461567584632 1075.6741523820353 420.8461567584632L1075.6741523820353 420.8461567584632Q1070.0039833045262 420.8461567584632 1063.6610823025671 419.9043320642329Q1057.2989603884807 418.9625073700026 1052.032430465642 416.444567881346Q1046.7659005428027 413.9458493048166 1043.3061363599159 409.486597691318Q1039.8655930891564 405.02734607781935 1039.8655930891564 398.0117131514099ZM1109.8681550562337 390.169581003533L1109.8681550562337 390.169581003533Q1109.8681550562337 385.1721438504742 1111.1559561687527 379.617300245728Q1112.443757281272 374.081677553109 1115.2115686275815 369.3533331698303Q1117.979379973891 364.62498878655157 1122.246422466118 361.58808467046197Q1126.494244046218 358.5511805543724 1132.7218195754144 358.5511805543724L1132.7218195754144 358.5511805543724Q1135.9509328127756 358.5511805543724 1139.1992669622637 359.4930052486027Q1142.447601111752 360.43482994283306 1145.8881443825117 362.1839329464036Q1149.3286876532713 363.95225686210136 1153.0575446059383 366.3164290537407Q1156.7671806464782 368.6806012453801 1160.9573394901968 371.52529624019814L1160.9573394901968 371.52529624019814Q1161.495525029757 366.10499902034206 1160.5537003355266 360.3771672064516Q1159.6118756412961 354.6301144804339 1158.1126444953784 349.0752708756878Q1156.632634261588 343.53964818306883 1155.075740379289 338.59987376639145Q1153.51884649699 333.6793202618412 1152.8461145725396 329.7582541879028Q1152.1733826480895 325.8371881139643 1152.7115681876496 323.26158588892633Q1153.2497537272097 320.7052045760155 1155.959902337138 320.0324726515653L1155.959902337138 320.0324726515653Q1159.6118756412961 322.72340034936616 1162.2451406027158 327.66317476604354Q1164.8784055641352 332.60294918272086 1166.7620549525957 339.0803965695702Q1168.6649252531834 345.57706486854664 1169.8758427171938 352.93867421324484Q1171.0867601812042 360.300283557943 1171.9132594026719 367.8733229360398Q1172.7205377120122 375.42714140200945 1173.1818396030635 382.59654162543615Q1173.6623624062422 389.76594184886284 1174.2005479458026 395.78208734466057Q1174.738733485363 401.7982328404583 1175.2192562885416 406.0460544205583Q1175.680558179593 410.3130969127854 1176.6416037859506 412.062199916356L1176.6416037859506 412.062199916356Q1176.6416037859506 414.2149420745967 1175.0847099036514 414.7723485262841Q1173.5278160213525 415.3105340658442 1171.9132594026719 415.3105340658442L1171.9132594026719 415.3105340658442Q1170.548574641644 415.3105340658442 1169.6067499474138 414.2918257231053Q1168.6649252531834 413.2731173803664 1168.1267397136235 411.9276535314659Q1167.5885541740631 410.5821896825655 1167.1080313708844 408.8907494153764Q1166.6275085677057 407.19930914818724 1166.0893230281456 405.77696165077816Q1165.5511374885855 404.35461415336914 1164.8784055641352 403.4127894591388Q1164.2056736396848 402.4709647649085 1163.1293025605646 402.4709647649085L1163.1293025605646 402.4709647649085Q1162.8409888786573 402.4709647649085 1162.3796869876057 402.52862750129Q1161.8991641844268 402.60551114979853 1161.8991641844268 402.7400575346886L1161.8991641844268 402.7400575346886Q1159.3427828715162 406.25748445395686 1155.8830186886294 409.5634813398266Q1152.4424754178694 412.86947822569624 1148.3292002226594 415.36819680222567Q1144.1967041153225 417.86691537875504 1139.6797897654424 419.3661465246727Q1135.1436545034353 420.8461567584632 1130.5498565050466 420.8461567584632L1130.5498565050466 420.8461567584632Q1125.4178729670975 420.8461567584632 1121.5544696295406 417.46327622408495Q1117.710287204111 414.0803956897066 1115.0770222426913 409.35205130642794Q1112.443757281272 404.6237069231492 1111.1559561687527 399.35717700031034Q1109.8681550562337 394.09064707747143 1109.8681550562337 390.169581003533ZM1118.2484727436708 392.5914159315538L1118.2484727436708 392.5914159315538Q1119.5939365925715 397.4735276118497 1120.689528583819 401.1062800038809Q1121.7658996629393 404.75825330803923 1123.3227935452383 407.06476276329715Q1124.8796874275376 409.35205130642794 1127.0324295857781 410.5053060340569Q1129.204392656146 411.65856076168586 1132.7218195754144 411.65856076168586L1132.7218195754144 411.65856076168586Q1137.046524804023 411.65856076168586 1141.9094155721918 409.15984218515644Q1146.7723063403605 406.661123608627 1150.962465184079 402.7400575346886Q1155.1526240277976 398.8189914607501 1157.8435517255984 394.14830981385285Q1160.5537003355266 389.4968490790827 1160.5537003355266 385.1721438504742L1160.5537003355266 385.1721438504742Q1160.5537003355266 384.76850469580404 1160.5537003355266 383.53836631966647Q1160.5537003355266 382.32744885565603 1160.5537003355266 381.92380970098594L1160.5537003355266 381.92380970098594Q1153.3843001121 374.8889558624493 1147.368154616302 371.85205174635973Q1141.3712300326315 368.81514763027013 1136.6236647372257 368.7382639817615Q1131.8953203539468 368.6806012453801 1128.3971143468057 370.8333434036208Q1124.8796874275376 373.00530647398864 1122.5731779722796 376.522733393257Q1120.285889429149 380.0401603125253 1119.1902974379013 384.3648655411339Q1118.1139263587809 388.68957076974243 1118.2484727436708 392.5914159315538ZM1234.3427819916528 398.0117131514099L1234.3427819916528 398.0117131514099Q1234.4773283765426 395.70520369615195 1235.688245840553 392.7259623164438Q1236.9183842166908 389.76594184886284 1239.4747655296014 386.92124685404474Q1242.0503677546394 384.07655185922664 1245.971433828578 381.84692605247733Q1249.8924999025166 379.617300245728 1255.2166925617366 378.6754755514977Q1260.5601061330844 377.7336508572674 1267.3835299382222 378.54092916660767Q1274.2069537433604 379.3482074759479 1282.5872714307975 382.59654162543615L1282.5872714307975 382.59654162543615Q1282.5872714307975 382.4619952405461 1282.5872714307975 381.2510777765357L1282.5872714307975 381.2510777765357L1282.4527250459073 380.0401603125253Q1282.4527250459073 376.522733393257 1280.4345292725566 372.8707600890986Q1278.397112587079 369.2187867849403 1275.225662086099 366.3164290537407Q1272.0542115851194 363.4140713225412 1268.4022382809612 361.58808467046197Q1264.7502649768026 359.7620980183828 1261.3673844424247 359.7620980183828L1261.3673844424247 359.7620980183828Q1260.021920593524 359.7620980183828 1259.003212250785 360.16573717305295Q1257.9845039080465 360.5693763277231 1257.042679213816 361.1844455157919Q1256.1008545195855 361.78029379173347 1255.2166925617366 362.2608165949122Q1254.3517515160152 362.74133939809093 1253.1216131398774 362.74133939809093L1253.1216131398774 362.74133939809093Q1252.8525203700974 362.74133939809093 1252.8525203700974 362.6067930132009L1252.8525203700974 362.6067930132009Q1252.7179739852072 362.45302571618373 1252.5834276003175 362.31847933129364L1252.5834276003175 362.31847933129364Q1252.314334830537 362.0493865615136 1251.8530329394857 361.64574740684344Q1251.372510136307 361.2421082521733 1251.372510136307 361.10756186728327L1251.372510136307 361.10756186728327Q1251.372510136307 358.68572693926245 1252.2566720941559 356.9174030235647Q1253.1216131398774 355.16830001999415 1254.6785070221763 354.0919289408738Q1256.2354009044757 352.99633694962625 1258.1959339414452 352.40048867368466Q1260.1564669784143 351.7854194856159 1262.3092091366548 351.7854194856159L1262.3092091366548 351.7854194856159Q1267.7295063565111 352.32360502517605 1272.6500598610614 355.09141637148554Q1277.5898342777386 357.859227717795 1281.7031094729482 362.0493865615136Q1285.8356055802856 366.2395454052321 1288.949393344884 371.71750536146965Q1292.0439601973549 377.1954653177072 1294.1390396192141 383.0770644286149Q1296.2341190410734 388.95866353952255 1296.9068509655235 394.89792538681166L1296.9068509655235 394.89792538681166Q1297.7333501869912 401.1062800038809 1297.0606182625406 406.526577223737L1297.0606182625406 406.526577223737Q1296.9068509655235 406.526577223737 1296.2341190410734 406.44969357522837Q1295.5613871166233 406.39203083884695 1294.754108807283 406.31514719033834Q1293.9468304979428 406.25748445395686 1293.4086449583824 406.1229380690669L1293.4086449583824 406.1229380690669L1292.7359130339319 405.9883916841768Q1289.891218039114 399.6262697700904 1286.373791119846 395.70520369615195Q1282.8563642005774 391.7841376222135 1279.4158209298175 389.5545118154642Q1275.975277659058 387.3248860087149 1272.99603627935 386.4599449629932Q1270.0167948996418 385.5757830051443 1268.1331455111808 385.1721438504742L1268.1331455111808 385.1721438504742Q1266.0957288257032 385.1721438504742 1263.3279174793938 385.44123662025424Q1260.5601061330844 385.7103293900343 1257.5808647533759 386.38306131448456Q1254.620844285795 387.05579323893477 1251.5647192575784 388.20904796656373Q1248.527815141489 389.3623026941927 1246.1636429498494 390.9768593128732Q1243.7994707582102 392.5914159315538 1242.377123260801 394.82104173830305Q1240.9739966755192 397.0506675450524 1240.9739966755192 400.02990892476055L1240.9739966755192 400.02990892476055Q1240.9739966755192 403.27824307424873 1243.5303779884298 405.5078688809981Q1246.1059802134682 407.7374946877474 1249.7579535176264 409.15984218515644Q1253.3907059096578 410.5821896825655 1257.1772255987057 411.1203752221257Q1260.9637452877546 411.65856076168586 1263.2702547430122 411.65856076168586L1263.2702547430122 411.65856076168586Q1267.0567744320606 411.65856076168586 1270.689526824092 411.2549216070157Q1274.3415001282501 410.8512824523456 1277.9358106960271 410.3130969127854Q1281.5109003516768 409.7556904610981 1285.0283272709453 409.35205130642794Q1288.5457541902138 408.9484121517578 1292.0439601973549 408.9484121517578L1292.0439601973549 408.9484121517578Q1292.3130529671348 408.9484121517578 1293.0050058037123 408.9484121517578Q1293.6777377281624 408.9484121517578 1294.408132388994 409.0252958002664Q1295.1577479619527 409.0829585366479 1295.7728171500216 409.0829585366479Q1296.3686654259632 409.0829585366479 1296.6377581957436 409.0829585366479L1296.6377581957436 409.0829585366479Q1297.7333501869912 409.486597691318 1297.867896571881 410.3130969127854Q1298.0024429567711 411.1203752221257 1298.0024429567711 411.9276535314659L1298.0024429567711 411.9276535314659Q1298.0024429567711 412.7349318408062 1296.311002689582 413.67675653503653Q1294.6195624223928 414.637802141394 1291.9094138124647 415.5796268356243Q1289.2184861146638 416.52145152985463 1285.8932683166672 417.54015987259356Q1282.5872714307975 418.5396473032053 1279.5503673147077 419.23160013978264Q1276.5134631986184 419.9043320642329 1273.8801982371988 420.36563395528447Q1271.2469332757792 420.8461567584632 1270.1513412845316 420.8461567584632L1270.1513412845316 420.8461567584632Q1264.4811722070226 420.8461567584632 1258.1382712050636 419.9043320642329Q1251.7761492909772 418.9625073700026 1246.5096193681384 416.444567881346Q1241.2430894452991 413.9458493048166 1237.7833252624123 409.486597691318Q1234.3427819916528 405.02734607781935 1234.3427819916528 398.0117131514099ZM1304.3453439587302 403.1436966893587L1304.3453439587302 403.1436966893587Q1304.3453439587302 394.6288326170316 1307.3245853384387 388.8241171546325Q1310.3038267181464 383.0001807801063 1315.2243802226967 379.482753860838Q1320.164154639374 375.98454785369677 1326.7184856747322 374.3507703228891Q1333.27281671009 372.7362137042086 1340.4422169335166 372.7362137042086L1340.4422169335166 372.7362137042086Q1346.2469323959158 372.7362137042086 1351.7248923521533 374.6198630926692Q1357.1836313962635 376.522733393257 1361.5083366248723 379.9056139276353Q1365.833041853481 383.26927354988635 1368.4086440785186 388.1321643180552Q1370.984246303557 393.014275998351 1370.984246303557 399.22263061542026L1370.984246303557 399.22263061542026Q1370.984246303557 404.6237069231492 1368.946829618079 408.0834711060361Q1366.9286338447282 411.5240143767958 1363.4112069254602 413.48454741376503Q1359.8937800061917 415.4450804507343 1355.645958426092 416.2523587600745Q1351.3789159338644 417.0596370694148 1346.9196643203659 417.0596370694148L1346.9196643203659 417.0596370694148Q1342.5949590917576 417.0596370694148 1338.05882382975 416.65599791474466Q1333.54190947987 416.2523587600745 1329.7553897908215 414.7723485262841Q1325.968870101773 413.2731173803664 1323.5470351737526 410.3130969127854Q1321.1059793336044 407.33385553307727 1321.1059793336044 401.9327792253483L1321.1059793336044 401.9327792253483Q1323.9506743284223 401.9327792253483 1326.583939289842 403.0668130408501Q1329.2172042512616 404.2200677684791 1331.9273528611893 405.5078688809981Q1334.6182805589906 406.7956699935171 1337.3284291689183 407.87204107263744L1337.3284291689183 407.87204107263744Q1339.8848104818294 409.0829585366479 1342.8640518615375 409.0829585366479L1342.8640518615375 409.0829585366479Q1345.0360149319054 409.0829585366479 1348.611104587555 408.67931938197773Q1352.1861942432051 408.2756802273076 1355.3576447441842 407.1224254996786Q1358.548316157291 405.9883916841768 1360.8356047004222 403.950974998699Q1363.1421141556798 401.9327792253483 1363.1421141556798 398.8189914607501L1363.1421141556798 398.8189914607501Q1363.1421141556798 394.22519346236146 1361.1046974702022 390.8423129279832Q1359.0865016968514 387.4594323936049 1355.8381675473634 385.2298065868556Q1352.5898333978748 383.0001807801063 1348.5342209390465 381.78926331609586Q1344.478608480218 380.5783458520855 1340.4422169335166 380.5783458520855L1340.4422169335166 380.5783458520855Q1339.8848104818294 380.5783458520855 1337.78973105997 380.84743862186554Q1335.6946516381108 381.11653139164565 1333.00372394031 381.7123796675873Q1330.2935753303818 382.32744885565603 1327.3335548628006 383.21161081350493Q1324.3543134830925 384.07655185922664 1321.855594906563 385.36435297174563Q1319.356876330034 386.6521540842647 1317.7230987992261 388.2667107029452Q1316.1085421805456 389.90048823375287 1316.1085421805456 391.91868400710354L1316.1085421805456 391.91868400710354L1316.1085421805456 393.55246153791126Q1316.2430885654358 395.0324717717017 1316.4352976867071 397.5311903482311Q1316.646727720106 400.02990892476055 1316.7812741049956 402.52862750129Q1316.9158204898858 405.02734607781935 1317.1849132596662 406.9302163784071Q1317.4540060294462 408.81386576686776 1317.4540060294462 409.0829585366479L1317.4540060294462 409.0829585366479Q1317.7230987992261 411.2549216070157 1318.3958307236762 415.7718359568958Q1319.0877835602537 420.30797121890305 1319.895061869594 425.92047756003063Q1320.7023401789343 431.5137629890311 1321.7210485216733 437.7413385182274Q1322.720535952285 443.9496931352966 1323.6815815586424 449.5621994764242Q1324.6234062528729 455.1747058175518 1325.3730218258315 459.6339574310505Q1326.1034164866633 464.0932090445491 1326.5070556413334 466.1114048178997L1326.5070556413334 466.1114048178997Q1326.5070556413334 466.399718499807 1326.583939289842 466.59192762107847Q1326.6416020262236 466.8033576544771 1326.6416020262236 466.93790403936714Q1326.6416020262236 467.0724504242572 1326.6416020262236 467.0724504242572L1326.6416020262236 467.0724504242572L1326.5070556413334 467.3415431940373L1326.5070556413334 467.6106359638174Q1326.2379628715535 468.0142751184875 1325.296138177323 468.95609981271787L1325.296138177323 468.95609981271787Q1324.2197670982027 469.7633781220581 1323.9506743284223 470.0324708918382L1323.9506743284223 470.0324708918382L1323.1433960190825 470.0324708918382Q1321.778711258055 470.0324708918382 1320.2987010242641 467.5337523153088Q1318.8186907904737 465.03503373877936 1317.2617969081743 460.7872121586794Q1315.7049030258754 456.52016966645226 1314.1480091435765 450.9845469738333Q1312.5911152612775 445.44892428121426 1311.1111050274867 439.490441521798Q1309.6118738815694 433.5511796745089 1308.400956417559 427.7464642121098Q1307.190038953548 421.9225278375836 1306.248214259318 416.9250906845248Q1305.2871686529606 411.9276535314659 1304.8258667619089 408.2756802273076Q1304.3453439587302 404.6237069231492 1304.3453439587302 403.1436966893587ZM1376.3853226112856 403.1436966893587L1376.3853226112856 403.1436966893587Q1376.3853226112856 394.6288326170316 1379.3645639909937 388.8241171546325Q1382.324584458575 383.0001807801063 1387.2643588752521 379.482753860838Q1392.2041332919298 375.98454785369677 1398.7584643272876 374.3507703228891Q1405.3127953626454 372.7362137042086 1412.4629746739452 372.7362137042086L1412.4629746739452 372.7362137042086Q1418.2869110484712 372.7362137042086 1423.7456500925819 374.6198630926692Q1429.223610048819 376.522733393257 1433.5483152774277 379.9056139276353Q1437.8730205060365 383.26927354988635 1440.4486227310745 388.1321643180552Q1443.005004043985 393.014275998351 1443.005004043985 399.22263061542026L1443.005004043985 399.22263061542026Q1443.005004043985 404.6237069231492 1440.9868082706344 408.0834711060361Q1438.9493915851567 411.5240143767958 1435.4511855780156 413.48454741376503Q1431.9337586587471 415.4450804507343 1427.66671616652 416.2523587600745Q1423.4188945864203 417.0596370694148 1418.9596429729213 417.0596370694148L1418.9596429729213 417.0596370694148Q1414.634937744313 417.0596370694148 1410.0988024823055 416.65599791474466Q1405.5818881324253 416.2523587600745 1401.7953684433774 414.7723485262841Q1398.0088487543285 413.2731173803664 1395.5677929141807 410.3130969127854Q1393.1459579861598 407.33385553307727 1393.1459579861598 401.9327792253483L1393.1459579861598 401.9327792253483Q1395.9714320688508 401.9327792253483 1398.6046970302705 403.0668130408501Q1401.257182903817 404.2200677684791 1403.9481106016178 405.5078688809981Q1406.658259211546 406.7956699935171 1409.3491869093468 407.87204107263744L1409.3491869093468 407.87204107263744Q1411.9247891343848 409.0829585366479 1414.904030514093 409.0829585366479L1414.904030514093 409.0829585366479Q1417.0567726723334 409.0829585366479 1420.6510832401104 408.67931938197773Q1424.2261728957606 408.2756802273076 1427.39762339674 407.1224254996786Q1430.5690738977196 405.9883916841768 1432.8755833529776 403.950974998699Q1435.1628718961083 401.9327792253483 1435.1628718961083 398.8189914607501L1435.1628718961083 398.8189914607501Q1435.1628718961083 394.22519346236146 1433.1446761227576 390.8423129279832Q1431.1264803494068 387.4594323936049 1427.8781461999188 385.2298065868556Q1424.6298120504302 383.0001807801063 1420.5741995916019 381.78926331609586Q1416.5185871327735 380.5783458520855 1412.4629746739452 380.5783458520855L1412.4629746739452 380.5783458520855Q1411.9247891343848 380.5783458520855 1409.8297097125255 380.84743862186554Q1407.7346302906662 381.11653139164565 1405.024481680738 381.7123796675873Q1402.3335539829372 382.32744885565603 1399.3543126032291 383.21161081350493Q1396.375071223521 384.07655185922664 1393.8763526469916 385.36435297174563Q1391.3776340704621 386.6521540842647 1389.7630774517816 388.2667107029452Q1388.148520833101 389.90048823375287 1388.148520833101 391.91868400710354L1388.148520833101 391.91868400710354L1388.148520833101 393.55246153791126Q1388.2830672179912 395.0324717717017 1388.4752763392626 397.5311903482311Q1388.6867063726613 400.02990892476055 1388.8212527575515 402.52862750129Q1388.9557991424413 405.02734607781935 1389.2248919122217 406.9302163784071Q1389.4939846820016 408.81386576686776 1389.4939846820016 409.0829585366479L1389.4939846820016 409.0829585366479Q1389.7630774517816 411.2549216070157 1390.4358093762316 415.7718359568958Q1391.1085413006822 420.30797121890305 1391.9158196100225 425.92047756003063Q1392.7423188314897 431.5137629890311 1393.7418062621018 437.7413385182274Q1394.7605146048404 443.9496931352966 1395.702339299071 449.5621994764242Q1396.6633849054283 455.1747058175518 1397.39377956626 459.6339574310505Q1398.1433951392187 464.0932090445491 1398.5470342938888 466.1114048178997L1398.5470342938888 466.1114048178997Q1398.5470342938888 466.399718499807 1398.6046970302705 466.59192762107847Q1398.681580678779 466.8033576544771 1398.681580678779 466.93790403936714Q1398.681580678779 467.0724504242572 1398.681580678779 467.0724504242572L1398.681580678779 467.0724504242572L1398.5470342938888 467.3415431940373L1398.5470342938888 467.6106359638174Q1398.2779415241089 468.0142751184875 1397.3361168298784 468.95609981271787L1397.3361168298784 468.95609981271787Q1396.2405248386312 469.7633781220581 1395.9714320688508 470.0324708918382L1395.9714320688508 470.0324708918382L1395.1641537595106 470.0324708918382Q1393.8186899106104 470.0324708918382 1392.3386796768195 467.5337523153088Q1390.8394485309022 465.03503373877936 1389.2825546486029 460.7872121586794Q1387.725660766304 456.52016966645226 1386.187987796132 450.9845469738333Q1384.631093913833 445.44892428121426 1383.1318627679152 439.490441521798Q1381.6518525341248 433.5511796745089 1380.4409350701144 427.7464642121098Q1379.230017606104 421.9225278375836 1378.2689719997466 416.9250906845248Q1377.327147305516 411.9276535314659 1376.8466245023374 408.2756802273076Q1376.3853226112856 404.6237069231492 1376.3853226112856 403.1436966893587Z " fill="#09c7c7" transform="matrix(0.6063734946881623,0,0,0.6063734946881623,0,60.46278008636543)"></path></g></svg>