<svg xmlns="http://www.w3.org/2000/svg" version="1.1" xmlns:xlink="http://www.w3.org/1999/xlink" xmlns:svgjs="http://svgjs.dev/svgjs" width="100%" height="100%" viewBox="0 0 1000 600"><rect width="1000" height="600" x="0" y="0" fill="#ffffff"/><g><rect width="333.3333333333333" height="333.3333333333333" rx="13.333333333333334" ry="13.333333333333334" y="228.8152780993422" fill="#222222" transform="matrix(0.6050542259103304,0,0,0.6050542259103305,0,60.711979042393835)" x="206.59300231933594"/><path d="M360.5267149025311 333.5562593933512L284.38460170986286 335.67505494597407Q283.44291479758607 335.67505494597407 282.73664961337846 335.4396332179049L282.73664961337846 335.4396332179049Q283.9137582537245 337.79385049859684 283.9137582537245 338.76916908631216L283.9137582537245 338.76916908631216L283.9137582537245 381.5486602440303Q285.0908668940705 383.46566574402243 290.7746200431699 383.3311390422686Q296.45837319226916 383.1966123405148 304.2609218939914 382.49034715630717Q312.06347059571357 381.78408197209956 320.8077062097126 380.270656577369Q329.55194182371156 378.7235995071999 337.11906879736455 377.4119641651Q344.68619577101754 376.1339604984387 349.6636837359093 375.15864191072336L349.6636837359093 375.15864191072336Q354.8429617534317 374.21695499844657 355.31380520957015 374.687798454585L355.31380520957015 374.687798454585Q356.0200703937778 374.687798454585 358.03797092008523 374.5869034282696Q360.0558714463927 374.45237672651575 362.4100887270847 374.3514817002004Q364.7979376832152 374.21695499844657 366.68131150776884 374.1160599721312Q368.5646853323225 373.9815332703774 369.2709505165301 373.9815332703774L369.2709505165301 373.9815332703774Q369.2709505165301 379.66528641947673 363.01545888497697 383.1966123405148Q356.75996725342384 386.7615699369913 347.2758347797788 388.64494376154494Q337.82533398157216 390.5283175860985 326.8277761131965 391.6045312001292Q315.83021824482086 392.6807448141598 306.2451907448604 393.38700999836743Q296.6937949203384 394.09327518257504 290.06835485896227 395.0349620948519L290.06835485896227 395.0349620948519Q283.2074930695169 395.5058055509903 282.73664961337846 397.3891793755439L282.73664961337846 397.3891793755439Q281.32411924496324 401.1895587000896 280.718749087071 405.89799326147374Q280.1133789291788 410.64005949829624 280.0124839028634 415.48302076143415Q279.87795720110955 420.32598202457206 280.0124839028634 425.20257496314844Q280.1133789291788 430.04553622628634 280.1133789291788 433.81228387539363L280.1133789291788 433.81228387539363Q280.1133789291788 434.7539707876704 280.1133789291788 437.1418197438009Q280.1133789291788 439.4960370244929 280.1133789291788 441.9847810069388Q280.1133789291788 444.4735249893847 280.1133789291788 446.6932155683229Q280.1133789291788 448.94653782269955 280.1133789291788 449.65280300690716L280.1133789291788 449.65280300690716Q281.08869751689406 452.0406519630377 284.38460170986286 453.2177606033837Q287.6805059028317 454.3948692437297 291.4808852273775 454.73118599811426Q295.2476328764847 455.1011344279373 298.57716874489205 454.86571269986814L298.57716874489205 454.86571269986814Q302.3439163939993 454.6302909717989 303.79007843785297 454.6302909717989L303.79007843785297 454.6302909717989Q311.8280488676444 454.6302909717989 319.86601929743574 453.78949908583746Q327.90398972722716 452.98233887531444 335.8074334552647 452.14154698935306Q343.74450885874074 451.30075510339157 351.6479525867783 450.4935948928686Q359.5850279902543 449.65280300690716 367.6229984200457 449.65280300690716L367.6229984200457 449.65280300690716L369.0355287884609 449.65280300690716Q369.50637224459933 449.88822473497635 370.4480591568761 450.1236464630456Q371.3897460691529 450.35906819111483 372.46595968318354 450.8299116472532Q373.5421732972142 451.30075510339157 374.24843848142183 451.80523023496846L374.24843848142183 451.80523023496846Q375.1901253936987 452.27607369110683 375.66096884983705 452.27607369110683L375.66096884983705 452.27607369110683Q376.1318123059755 452.5114954191761 377.0734992182523 453.2177606033837L377.0734992182523 453.2177606033837Q378.0151861305291 453.6886040595221 378.0151861305291 454.15944751566053L378.0151861305291 454.15944751566053Q378.0151861305291 458.63246034897537 373.0713298410758 461.59204778755964Q368.0938418761841 464.55163522614396 360.5267149025311 466.3341140243822Q352.95958792887814 468.1165928226204 343.9799305868099 468.92375303314344Q335.0002732447417 469.7645449191049 326.7268810868811 470.1008616734895Q318.4198572535821 470.4708101033125 312.534314051852 470.4708101033125Q306.61513917468346 470.4708101033125 304.967187078199 470.4708101033125L304.967187078199 470.4708101033125Q295.4830546045539 470.4708101033125 288.285876060724 468.822858006828Q281.08869751689406 467.1749059103437 276.2121045783177 463.2736315594825Q271.36914331517977 459.37235720862145 269.0149260344877 452.7469171472453L269.0149260344877 452.7469171472453Q266.6607087537957 445.6506336297307 266.6607087537957 435.6956576999472L266.6607087537957 435.6956576999472Q266.6607087537957 426.716000357879 267.9387124204571 417.7363430158108Q269.25034776255694 408.7566856737426 269.25034776255694 399.5416066036052L269.25034776255694 399.5416066036052Q269.25034776255694 395.7412272790595 268.0732391222109 393.15158827029825Q266.8961304818649 390.5283175860985 266.8961304818649 387.4678351211989L266.8961304818649 387.4678351211989L266.8961304818649 386.0553047527837Q267.3669739380033 385.58446129664526 268.54408257834933 383.801982498407Q269.7211912186953 382.01950370016874 270.19203467483374 381.5486602440303L270.19203467483374 381.5486602440303L270.19203467483374 329.2850366126671Q270.19203467483374 325.5182889635598 271.0328265607952 323.6349151390062Q271.8399867713182 321.7179096390141 275.03499593797164 321.0116444548065Q278.23000510462515 320.3053792705989 284.01465328003985 320.5408009986681Q289.832933130893 320.7762227267373 299.85517241155344 321.2470661828757Q309.91104336765227 321.7179096390141 324.5744538588198 321.9533313670833L324.5744538588198 321.9533313670833Q339.7087078061258 322.1887530951525 360.5267149025311 321.9533313670833L360.5267149025311 321.9533313670833Q362.88093218322314 322.92864995479863 365.2687811393536 323.9712318933908Q367.6229984200457 325.0474455074214 369.64089894635316 326.69539760390586Q371.62516779722216 328.34334970039026 372.8359081130066 330.49577692845156Q374.01301675335264 332.6145724810744 374.01301675335264 335.67505494597407L374.01301675335264 335.67505494597407Q374.01301675335264 336.3813201301817 373.1722248673912 337.32300704245847Q372.36506465686824 338.29832563017374 371.8942212007298 338.06290390210455L371.8942212007298 338.06290390210455L360.5267149025311 333.5562593933512ZM391.50148798135064 386.0553047527837L391.50148798135064 386.0553047527837Q391.7369097094198 385.3490395685761 392.20775316555824 384.2728259545454Q392.67859662169667 383.1966123405148 393.5193885076581 382.01950370016874Q394.3265487181811 380.84239505982276 395.1673406041425 380.03523484929974Q396.008132490104 379.1944429633383 397.18524113045 379.1944429633383L397.18524113045 379.1944429633383Q397.4206628585192 379.1944429633383 397.4206628585192 379.29533798965366Q397.4206628585192 379.4298646914075 397.8915063146576 379.4298646914075L397.8915063146576 379.4298646914075L398.362349770796 379.4298646914075Q403.8106811918261 382.01950370016874 407.3420071128642 386.86246496330665Q410.90696470934074 391.73905790188303 413.6311304198558 397.86002283168233Q416.32166445493243 404.0146194369201 418.7095134110629 411.0100079281193Q421.0637306917549 417.97176474388004 424.02331813033925 424.69809983157154Q426.9829055689235 431.45806659470156 430.9850749461 437.8480849280085Q435.0208759987149 444.2381032613155 441.17547260395264 449.18195955076874L441.17547260395264 449.18195955076874Q443.2942681565755 442.0856760332542 445.41306370919835 435.3593409455626Q447.5654909372596 428.59937418243265 450.25602497233626 421.77214406842575Q452.98019068285134 414.91128227898037 456.64604330564316 407.5795770333966Q460.3118959284351 400.2478717878128 465.05396216525764 391.73905790188303L465.05396216525764 391.73905790188303Q470.73771531435693 389.35120894575255 474.1681462090796 388.8803654896141Q477.5649454283639 388.4095220334757 479.01110747221753 389.72115737557556Q480.4236378406328 391.0327927176754 479.481950928356 393.6224317264367Q478.54026401607916 396.21207073519787 475.44614987574107 399.7770283316744L475.44614987574107 399.7770283316744Q473.56277605118737 401.42498042815885 471.07403206874153 407.3441553053274Q468.5852880862957 413.2296985070575 465.76022734946525 421.3013006122873Q462.9351666126348 429.33927104207874 459.7401574459813 438.0835066560777Q456.5451482793278 446.8277422700767 453.21561241092047 454.02492081390665Q449.91970821795167 461.25573103317504 446.7246990512982 465.9641655945591Q443.5296898846447 470.70623183138173 440.4692074197451 470.4708101033125L440.4692074197451 470.4708101033125Q437.13967155133776 470.4708101033125 433.00297547240746 465.39242711210534Q428.86627939347716 460.3140441208983 424.1242131566546 452.27607369110683Q419.4157785952705 444.2381032613155 414.67371235844803 434.653075761355Q409.96527779706395 425.0680482613946 405.55952831462594 415.617547463188Q401.1874105076265 406.1670466649814 397.5215578848346 398.22997126150534Q393.85570526204265 390.29289585802934 391.50148798135064 386.0553047527837Z " fill="#00ffff" transform="matrix(0.6050542259103304,0,0,0.6050542259103305,0,60.711979042393835)"/><path d="M702.9671342238397 354.20982434383274L638.3101296371226 356.0090254431981Q637.5104847040712 356.0090254431981 636.9107510042828 355.8091142099353L636.9107510042828 355.8091142099353Q637.910307170597 357.80822654256343 637.910307170597 358.63643022322367L637.910307170597 358.63643022322367L637.910307170597 394.96315718183865Q638.909863336911 396.5910057955502 643.7362916828276 396.47677080511426Q648.5627200287443 396.3625358146784 655.1883494740262 395.76280211488995Q661.8139789193082 395.16306841510146 669.2392532976414 393.87792477269767Q676.6645276759746 392.5642223826849 683.0902458879938 391.45043122593484Q689.515964100013 390.36519881679385 693.7426587461412 389.5369951361336L693.7426587461412 389.5369951361336Q698.1407058779231 388.7373502030823 698.5405283444487 389.13717266960793L698.5405283444487 389.13717266960793Q699.1402620442373 389.13717266960793 700.8537869007756 389.05149642678106Q702.5673117573141 388.9372614363451 704.5664240899423 388.8515851935182Q706.5940951701795 388.7373502030823 708.1933850362819 388.6516739602554Q709.7926749023845 388.5374389698195 710.392408602173 388.5374389698195L710.392408602173 388.5374389698195Q710.392408602173 393.3638673157361 705.0804815469038 396.3625358146784Q699.7685544916346 399.38976306122964 691.7149876659039 400.9890529273322Q683.6899795877823 402.5883427934347 674.3512691196478 403.5022227169219Q665.0125586515132 404.41610264040906 656.8733155829557 405.01583634019755Q648.7626312620071 405.615570039986 643.1365579830392 406.4152149730372L643.1365579830392 406.4152149730372Q637.3105734708084 406.8150374395629 636.9107510042828 408.41432730566544L636.9107510042828 408.41432730566544Q635.7112836047058 411.6414657854795 635.1972261477443 415.6396904507359Q634.6831686907828 419.6664738636012 634.5974924479559 423.77893351929345Q634.48325745752 427.8913931749857 634.5974924479559 432.03241157828694Q634.6831686907828 436.1448712339792 634.6831686907828 439.3434509661843L634.6831686907828 439.3434509661843Q634.6831686907828 440.14309589923556 634.6831686907828 442.1707669794727Q634.6831686907828 444.16987931210093 634.6831686907828 446.28322663516497Q634.6831686907828 448.39657395822906 634.6831686907828 450.2814513004214Q634.6831686907828 452.1948873902226 634.6831686907828 452.7946210900111L634.6831686907828 452.7946210900111Q635.511372371443 454.82229217024826 638.3101296371226 455.8218483365623Q641.1088869028019 456.82140450287636 644.3360253826161 457.1069919789661Q647.5346051148211 457.42113820266485 650.3619211281095 457.22122696940204L650.3619211281095 457.22122696940204Q653.5605008603147 457.02131573613923 654.7885270075005 457.02131573613923L654.7885270075005 457.02131573613923Q661.6140676860454 457.02131573613923 668.4396083645902 456.30734704591487Q675.2651490431349 455.6219371032995 681.9764547312438 454.90796841307514Q688.7163191669617 454.1939997228508 695.4276248550706 453.5085897802354Q702.1674892907885 452.7946210900111 708.9930299693333 452.7946210900111L708.9930299693333 452.7946210900111L710.1924973689102 452.7946210900111Q710.5923198354358 452.9945323232739 711.391964768487 453.1944435565367Q712.1916097015383 453.39435478979954 713.1054896250255 453.79417725632516Q714.0193695485127 454.1939997228508 714.6191032483011 454.6223809369854L714.6191032483011 454.6223809369854Q715.4187481813524 455.022203403511 715.818570647878 455.022203403511L715.818570647878 455.022203403511Q716.2183931144036 455.2221146367739 717.018038047455 455.8218483365623L717.018038047455 455.8218483365623Q717.8176829805062 456.22167080308793 717.8176829805062 456.62149326961355L717.8176829805062 456.62149326961355Q717.8176829805062 460.4198067016072 713.6195470819871 462.9329764911969Q709.3928524358589 465.4461462807866 702.9671342238397 466.9597599040622Q696.5414160118205 468.4733735273378 688.9162304002245 469.15878346995316Q681.2910447886284 469.8727521601775 674.2655928768208 470.15833963626727Q667.2115822174043 470.472485859966 662.2138013858338 470.472485859966Q657.1874618066544 470.472485859966 655.7880831738146 470.472485859966L655.7880831738146 470.472485859966Q647.734516348084 470.472485859966 641.6229443597636 469.07310722712623Q635.511372371443 467.67372859428656 631.3703539681419 464.36091387164555Q627.2578943124496 461.04809914900454 625.2587819798214 455.4220258700367L625.2587819798214 455.4220258700367Q623.2596696471933 449.39613012454316 623.2596696471933 440.94274083228686L623.2596696471933 440.94274083228686Q623.2596696471933 433.3175552206908 624.3449020563343 425.6923696090947Q625.4586932130842 418.06718399749866 625.4586932130842 410.2420871526398L625.4586932130842 410.2420871526398Q625.4586932130842 407.0149486728257 624.4591370467701 404.8159251069347Q623.4595808804561 402.5883427934347 623.4595808804561 399.9894967610181L623.4595808804561 399.9894967610181L623.4595808804561 398.79002936144116Q623.8594033469817 398.39020689491554 624.8589595132958 396.87659327163993Q625.8585156796098 395.36297964836433 626.2583381461354 394.96315718183865L626.2583381461354 394.96315718183865L626.2583381461354 350.58286339749304Q626.2583381461354 347.38428366528797 626.9723068363598 345.7849937991854Q627.6577167789752 344.1571451854739 630.3707978018277 343.5574114856854Q633.0838788246804 342.957677785897 637.9959834134238 343.1575890191598Q642.9366467497764 343.3575002524226 651.4471535372506 343.7573227189482Q659.9862190723338 344.1571451854739 672.4378330298465 344.35705641873665L672.4378330298465 344.35705641873665Q685.2892694538848 344.5569676519995 702.9671342238397 344.35705641873665L702.9671342238397 344.35705641873665Q704.9662465564679 345.18526009939694 706.9939176367051 346.0705812752751Q708.9930299693333 346.9844611987623 710.7065548258718 348.383839831602Q712.3915209348012 349.7832184644418 713.4196358487243 351.6109783114161Q714.4191920150383 353.41017941078144 714.4191920150383 356.0090254431981L714.4191920150383 356.0090254431981Q714.4191920150383 356.60875914298657 713.7052233248139 357.4084040760378Q713.0198133821987 358.23660775669805 712.6199909156729 358.03669652343524L712.6199909156729 358.03669652343524L702.9671342238397 354.20982434383274ZM729.2697407717048 398.79002936144116L729.2697407717048 398.79002936144116Q729.4696520049677 398.1902956616527 729.8694744714933 397.27641573816555Q730.2692969380189 396.3625358146784 730.9832656282432 395.36297964836433Q731.6686755708586 394.3634234820502 732.382644261083 393.6780135394348Q733.0966129513073 392.9640448492105 734.0961691176215 392.9640448492105L734.0961691176215 392.9640448492105Q734.2960803508843 392.9640448492105 734.2960803508843 393.04972109203743Q734.2960803508843 393.1639560824733 734.6959028174099 393.1639560824733L734.6959028174099 393.1639560824733L735.0957252839355 393.1639560824733Q739.7222423965893 395.36297964836433 742.7209108955316 399.4754393040566Q745.7481381420828 403.61645770735777 748.0613966984097 408.81414977219106Q750.3460965071276 414.0404005846333 752.3737675873648 419.98062008729994Q754.372879919993 425.89228084235754 756.8860497095827 431.6040303641523Q759.3992194991724 437.3443386335561 762.7977104646403 442.7705006792612Q766.2247601777171 448.19666272496625 771.4510109901595 452.3947986234854L771.4510109901595 452.3947986234854Q773.2502120895248 446.3689028779919 775.0494131888902 440.6571533561971Q776.8771730358645 434.91684508679333 779.1618728445825 429.1194193221716Q781.4751314009094 423.2934348099409 784.5880348902875 417.0676278311846Q787.7009383796657 410.8418208524282 791.727721792531 403.61645770735777L791.727721792531 403.61645770735777Q796.5541501384477 401.5887866271206 799.467142394563 401.188964160595Q802.3515759030694 400.7891416940694 803.5796020502552 401.90293285081935Q804.7790694498321 403.01672400756934 803.9794245167808 405.21574757346036Q803.1797795837296 407.41477113935133 800.552374803704 410.4419983859026L800.552374803704 410.4419983859026Q798.9530849376014 411.8413770187423 796.8397376145373 416.86771659792174Q794.7263902914733 421.86549742949217 792.3274554923195 428.71959685564593Q789.9285206931656 435.54513753419076 787.2154396703131 442.970411912524Q784.5023586474606 450.39568629085727 781.6750426341722 456.5072582791777Q778.8762853684926 462.64738901510714 776.1632043456401 466.64561368036345Q773.4501233227876 470.6723970932288 770.851277290371 470.472485859966L770.851277290371 470.472485859966Q768.0239612770825 470.472485859966 764.5112353211788 466.1601149710109Q760.9985093652749 461.84774408205584 756.9717259524097 455.022203403511Q752.9735012871532 448.19666272496625 748.9467178742879 440.0574196564087Q744.9484932090315 431.91817658785106 741.2072972722559 423.8931685097294Q737.4946600830893 415.86816043160763 734.3817565937112 409.1282959958898Q731.268853104333 402.3884315601719 729.2697407717048 398.79002936144116ZM811.2047876618514 416.46789413139606L811.2047876618514 416.46789413139606Q811.2047876618514 406.0153925065116 814.3176911512295 396.47677080511426Q817.4305946406076 386.93814910371697 823.3422553956652 379.7127859586465Q829.2824748983319 372.4874228135761 837.792981685806 368.175051924621Q846.3320472208893 363.83412228805696 857.5841937788251 363.83412228805696L857.5841937788251 363.83412228805696Q864.209823224107 364.66232596871725 869.1219278128507 367.4610832343967Q874.0625911492031 370.2598405000761 877.1754946385812 374.40085890337735Q880.2883981279595 378.5133185590696 881.6877767607992 383.9394806047747L881.6877767607992 383.9394806047747Q882.8872441603761 389.13717266960793 882.8872441603761 395.16306841510146L882.8872441603761 395.16306841510146Q882.8872441603761 402.3884315601719 878.6605495142479 408.2144160724026Q874.4624136157287 414.0404005846333 868.0366954037096 417.9529490070628Q861.6109771916905 421.86549742949217 854.1857028133571 423.97884475255626Q846.731869687415 426.09219207562035 840.3061514753958 426.09219207562035L840.3061514753958 426.09219207562035Q837.907216676242 426.09219207562035 835.3940468866523 426.09219207562035Q832.8808770970626 426.09219207562035 830.8817647644344 425.2925471425691Q828.8826524318062 424.4929022095178 827.6546262846203 422.89361234341527Q826.4551588850434 421.26576372970374 826.4551588850434 418.06718399749866L826.4551588850434 418.06718399749866Q826.4551588850434 417.0676278311846 826.7693051087421 416.35365914096025Q827.0548925848319 415.6396904507359 828.4828299652805 415.3541029746461Q829.8822085981203 415.0399567509474 832.6809658637998 415.23986798421026L832.6809658637998 415.23986798421026Q835.5082818770882 415.6396904507359 840.3061514753958 416.46789413139606L840.3061514753958 416.46789413139606Q843.1334674886842 416.46789413139606 848.4453945439534 414.55445804159484Q853.7573215992226 412.6410219517936 859.2977186353636 409.6423534528513Q864.8095569238956 406.61512620630003 868.8363403367608 402.70257778387065Q872.8345650020173 398.79002936144116 872.8345650020173 394.96315718183865L872.8345650020173 394.96315718183865Q872.8345650020173 390.9649325165823 871.5494213596133 387.05238409415284Q870.2357189696006 383.11127692411446 867.636872937184 380.1126084251722Q865.0094681571583 377.08538117862093 861.4967422012546 375.2861800792556Q857.9840162453507 373.4869789798902 853.5574103659598 373.88680144641586L853.5574103659598 373.88680144641586Q846.5319584541521 374.4865351462043 840.8202089323573 377.71367362601836Q835.1084594105625 380.91225335822344 831.0816759976972 386.0242691802298Q827.0548925848319 391.1648437498451 824.8558690189409 397.3906507286015Q822.6568454530499 403.61645770735777 822.6568454530499 410.4419983859026L822.6568454530499 410.4419983859026Q822.6568454530499 415.6396904507359 822.8567566863127 420.8659412631781Q823.0566679195755 426.09219207562035 824.3418115619794 431.11853165479977Q825.6555139519921 436.1448712339792 828.5685062081075 440.742829599024Q831.4814984642229 445.36934671167785 836.9933367527549 448.8820726675816Q842.5337337888958 452.3947986234854 850.9585643335431 454.70805717981233Q859.3833948781904 457.02131573613923 871.8350088357032 457.6210494359277L871.8350088357032 457.6210494359277L907.7904720754015 455.2221146367739Q904.5633335955873 459.6201617685559 899.6512290068439 462.4474777818443Q894.7391244181003 465.2462350475238 889.1987273819593 466.9597599040622Q883.6868890934273 468.6732847606006 878.2607270477223 469.4729296936519Q872.8345650020173 470.2725746267032 868.0366954037096 470.2725746267032L868.0366954037096 470.2725746267032Q856.3847263792481 470.2725746267032 846.1321359876265 466.44570244710064Q835.9081043436138 462.64738901510714 828.054448751146 455.70761334612644Q820.2293519062871 448.79639642475473 815.7170697840692 438.8579522568317Q811.2047876618514 428.91950808890874 811.2047876618514 416.46789413139606ZM935.4924572561063 470.2725746267032L935.4924572561063 470.2725746267032Q931.0944101243243 462.24756654858146 927.8672716445102 452.7946210900111Q924.668691912305 443.37023437904963 922.4411095988052 433.7173776872164Q920.242086032914 424.0930797429922 918.9283836429014 414.95428050812046Q917.6146812528885 405.8154812732488 917.2148587863629 398.39020689491554L917.2148587863629 398.39020689491554Q917.2148587863629 396.9908282620758 917.0149475531001 395.2773034055374Q916.8150363198373 393.5637785489989 916.9292713102731 391.7645774496336Q917.0149475531001 389.93681760265923 917.5290050100615 388.3375277365567Q918.0145037194142 386.73823787045416 919.2425298666 385.53877047087724L919.2425298666 385.53877047087724L919.6423523331256 385.53877047087724Q919.8422635663884 385.53877047087724 919.8422635663884 385.42453548044136Q919.8422635663884 385.33885923761443 920.0421747996512 385.33885923761443L920.0421747996512 385.33885923761443Q920.242086032914 385.33885923761443 920.242086032914 385.42453548044136Q920.242086032914 385.53877047087724 920.6419084994396 385.53877047087724L920.6419084994396 385.53877047087724L921.0417309659654 385.53877047087724Q921.441553432491 385.73868170414005 923.0408432985936 386.3384154039285Q924.668691912305 386.93814910371697 925.0685143788306 387.3379715702426L925.0685143788306 387.3379715702426Q928.6669165775614 386.13850417066567 932.493788757164 384.42497931412726Q936.2921021891576 382.7114544575888 940.204650611587 381.2263995819222Q944.1457577816253 379.7127859586465 948.1439824468818 378.7132297923324Q952.1707658597471 377.71367362601836 955.9690792917406 377.71367362601836L955.9690792917406 377.71367362601836Q958.796395305029 377.71367362601836 960.9097426280931 377.9135848592812Q962.9945312035483 378.113496092544 965.1078785266124 378.59899480189654Q967.2212258496764 379.1130522588581 969.6487193964391 379.79846220147346Q972.047654195593 380.5124308916978 975.246233927798 381.5119870580119L975.246233927798 381.5119870580119Q976.8740825415097 382.7114544575888 978.1592261839135 383.82524561433877Q979.4729285739262 384.9390367710888 980.5867197306762 386.3384154039285Q981.6719521398173 387.73779403676826 982.2716858396058 389.7369063693964Q982.8999782870031 391.7645774496336 982.8999782870031 394.96315718183865L982.8999782870031 394.96315718183865Q979.672839807189 395.36297964836433 975.360468918234 394.4776584724861Q971.0480980292789 393.5637785489989 966.3073459261892 392.1643999161592Q961.5951525707085 390.76502128331947 956.5688129915291 389.7369063693964Q951.5710321599587 388.7373502030823 946.9445150473049 388.9372614363451Q942.3179979346511 389.13717266960793 938.3197732693947 391.56466621637077L938.3197732693947 391.56466621637077Q934.0930786232665 393.5637785489989 930.8659401434525 398.79002936144116L930.8659401434525 398.79002936144116Q929.4665615106127 404.6160138736719 929.6664727438755 410.2420871526398Q929.8663839771383 415.86816043160763 931.0944101243243 421.1800874868768Q932.2938775239012 426.49201454214597 934.1787548660934 431.83250034502413Q936.0921909558947 437.1444274002933 937.8057158124332 442.45635445556246Q939.5192406689715 447.7682815108316 940.9186193018112 452.9945323232739Q942.3179979346511 458.22078313571615 942.7178204011767 463.6469451814212L942.7178204011767 463.6469451814212Q942.7178204011767 465.6460575140494 940.5187968352857 467.9593160703763Q938.3197732693947 470.2725746267032 935.4924572561063 470.2725746267032ZM1083.8837098323352 470.2725746267032L1083.8837098323352 470.2725746267032Q1079.4856627005533 462.24756654858146 1076.2585242207392 452.7946210900111Q1073.0599444885343 443.37023437904963 1070.8323621750342 433.7173776872164Q1068.6333386091433 424.0930797429922 1067.3196362191302 414.95428050812046Q1066.0344925767265 405.8154812732488 1065.606111362592 398.39020689491554L1065.606111362592 398.39020689491554Q1065.606111362592 396.9908282620758 1065.4062001293291 395.2773034055374Q1065.2062888960663 393.5637785489989 1065.320523886502 391.7645774496336Q1065.4062001293291 389.93681760265923 1065.9202575862905 388.3375277365567Q1066.4343150432524 386.73823787045416 1067.6337824428292 385.53877047087724L1067.6337824428292 385.53877047087724L1068.0336049093548 385.53877047087724Q1068.2335161426176 385.53877047087724 1068.2335161426176 385.42453548044136Q1068.2335161426176 385.33885923761443 1068.4334273758805 385.33885923761443L1068.4334273758805 385.33885923761443Q1068.6333386091433 385.33885923761443 1068.6333386091433 385.42453548044136Q1068.6333386091433 385.53877047087724 1069.0331610756689 385.53877047087724L1069.0331610756689 385.53877047087724L1069.4329835421945 385.53877047087724Q1069.8328060087201 385.73868170414005 1071.4320958748226 386.3384154039285Q1073.0599444885343 386.93814910371697 1073.4597669550599 387.3379715702426L1073.4597669550599 387.3379715702426Q1077.0581691537905 386.13850417066567 1080.885041333393 384.42497931412726Q1084.6833547653864 382.7114544575888 1088.6244619354247 381.2263995819222Q1092.5370103578543 379.7127859586465 1096.535235023111 378.7132297923324Q1100.5620184359761 377.71367362601836 1104.3603318679698 377.71367362601836L1104.3603318679698 377.71367362601836Q1107.187647881258 377.71367362601836 1109.3009952043221 377.9135848592812Q1111.4143425273862 378.113496092544 1113.4991311028411 378.59899480189654Q1115.6124784259055 379.1130522588581 1118.0399719726684 379.79846220147346Q1120.438906771822 380.5124308916978 1123.637486504027 381.5119870580119L1123.637486504027 381.5119870580119Q1125.2653351177387 382.7114544575888 1126.5504787601426 383.82524561433877Q1127.8641811501552 384.9390367710888 1128.977972306905 386.3384154039285Q1130.0632047160461 387.73779403676826 1130.6914971634437 389.7369063693964Q1131.2912308632322 391.7645774496336 1131.2912308632322 394.96315718183865L1131.2912308632322 394.96315718183865Q1128.064092383418 395.36297964836433 1123.751721494463 394.4776584724861Q1119.439350605508 393.5637785489989 1114.7271572500272 392.1643999161592Q1109.9864051469376 390.76502128331947 1104.988624315367 389.7369063693964Q1099.9622847361875 388.7373502030823 1095.3357676235337 388.9372614363451Q1090.7092505108799 389.13717266960793 1086.7110258456237 391.56466621637077L1086.7110258456237 391.56466621637077Q1082.4843311994955 393.5637785489989 1079.2857514672905 398.79002936144116L1079.2857514672905 398.79002936144116Q1077.8578140868417 404.6160138736719 1078.0577253201045 410.2420871526398Q1078.2576365533673 415.86816043160763 1079.4856627005533 421.1800874868768Q1080.6851301001302 426.49201454214597 1082.5985661899313 431.83250034502413Q1084.4834435321236 437.1444274002933 1086.1969683886623 442.45635445556246Q1087.9104932452005 447.7682815108316 1089.3098718780402 452.9945323232739Q1090.7092505108799 458.22078313571615 1091.1090729774055 463.6469451814212L1091.1090729774055 463.6469451814212Q1091.1090729774055 465.6460575140494 1088.9100494115146 467.9593160703763Q1086.7110258456237 470.2725746267032 1083.8837098323352 470.2725746267032ZM1136.9173041422 416.46789413139606L1136.9173041422 416.46789413139606Q1136.9173041422 406.0153925065116 1140.0302076315782 396.47677080511426Q1143.1431111209563 386.93814910371697 1149.054771876014 379.7127859586465Q1154.9664326310717 372.4874228135761 1163.505498166155 368.175051924621Q1172.044563701238 363.83412228805696 1183.2967102591738 363.83412228805696L1183.2967102591738 363.83412228805696Q1189.9223397044557 364.66232596871725 1194.8344442931993 367.4610832343967Q1199.746548881943 370.2598405000761 1202.859452371321 374.40085890337735Q1205.9723558606993 378.5133185590696 1207.400293241148 383.9394806047747L1207.400293241148 383.9394806047747Q1208.599760640725 389.13717266960793 1208.599760640725 395.16306841510146L1208.599760640725 395.16306841510146Q1208.599760640725 402.3884315601719 1204.3730659945968 408.2144160724026Q1200.1463713484686 414.0404005846333 1193.7206531364495 417.9529490070628Q1187.2949349244302 421.86549742949217 1179.869660546097 423.97884475255626Q1172.4443861677637 426.09219207562035 1166.0186679557446 426.09219207562035L1166.0186679557446 426.09219207562035Q1163.6197331565909 426.09219207562035 1161.106563367001 426.09219207562035Q1158.5933935774115 426.09219207562035 1156.5942812447834 425.2925471425691Q1154.566610164546 424.4929022095178 1153.3671427649692 422.89361234341527Q1152.1676753653921 421.26576372970374 1152.1676753653921 418.06718399749866L1152.1676753653921 418.06718399749866Q1152.1676753653921 417.0676278311846 1152.4532628414818 416.35365914096025Q1152.7674090651806 415.6396904507359 1154.1667876980205 415.3541029746461Q1155.5661663308601 415.0399567509474 1158.3934823441487 415.23986798421026L1158.3934823441487 415.23986798421026Q1161.192239609828 415.6396904507359 1166.0186679557446 416.46789413139606L1166.0186679557446 416.46789413139606Q1168.845983969033 416.46789413139606 1174.1579110243022 414.55445804159484Q1179.4698380795712 412.6410219517936 1185.0102351157122 409.6423534528513Q1190.522073404244 406.61512620630003 1194.5488568171097 402.70257778387065Q1198.5470814823661 398.79002936144116 1198.5470814823661 394.96315718183865L1198.5470814823661 394.96315718183865Q1198.5470814823661 390.9649325165823 1197.233379092353 387.05238409415284Q1195.9482354499494 383.11127692411446 1193.3208306699237 380.1126084251722Q1190.721984637507 377.08538117862093 1187.2092586816034 375.2861800792556Q1183.6965327256994 373.4869789798902 1179.2699268463084 373.88680144641586L1179.2699268463084 373.88680144641586Q1172.2444749345009 374.4865351462043 1166.532725412706 377.71367362601836Q1160.7924171433024 380.91225335822344 1156.794192478046 386.0242691802298Q1152.7674090651806 391.1648437498451 1150.5683854992894 397.3906507286015Q1148.3408031857896 403.61645770735777 1148.3408031857896 410.4419983859026L1148.3408031857896 410.4419983859026Q1148.3408031857896 415.6396904507359 1148.5407144190526 420.8659412631781Q1148.7406256523154 426.09219207562035 1150.054328042328 431.11853165479977Q1151.3680304323407 436.1448712339792 1154.2810226884562 440.742829599024Q1157.1940149445718 445.36934671167785 1162.7058532331034 448.8820726675816Q1168.2176915216355 452.3947986234854 1176.6710808138919 454.70805717981233Q1185.095911358539 457.02131573613923 1197.5475253160519 457.6210494359277L1197.5475253160519 457.6210494359277L1233.50298855575 455.2221146367739Q1230.275850075936 459.6201617685559 1225.3637454871925 462.4474777818443Q1220.451640898449 465.2462350475238 1214.911243862308 466.9597599040622Q1209.3994055737762 468.6732847606006 1203.9732435280712 469.4729296936519Q1198.5470814823661 470.2725746267032 1193.7206531364495 470.2725746267032L1193.7206531364495 470.2725746267032Q1182.097242859597 470.2725746267032 1171.8446524679753 466.44570244710064Q1161.5920620763536 462.64738901510714 1153.7669652314946 455.70761334612644Q1145.9418683866359 448.79639642475473 1141.429586264418 438.8579522568317Q1136.9173041422 428.91950808890874 1136.9173041422 416.46789413139606ZM1242.9273752667118 436.344782467242L1242.9273752667118 436.344782467242Q1243.1272864999746 432.9177327541652 1244.92648759934 428.4911268747742Q1246.7542474463144 424.0930797429922 1250.5525608783078 419.866385096864Q1254.3794330579103 415.6396904507359 1260.205417570141 412.3268757280949Q1266.0314020823716 409.01406100545387 1273.9421751700575 407.61468237261414Q1281.8815070053524 406.2153037397744 1292.0198624065379 407.41477113935133Q1302.1582178077238 408.61423853892825 1314.6098317652363 413.44066688484486L1314.6098317652363 413.44066688484486Q1314.6098317652363 413.24075565158205 1314.6098317652363 411.44155455221664L1314.6098317652363 411.44155455221664L1314.4099205319735 409.6423534528513Q1314.4099205319735 404.41610264040906 1311.4112520330314 398.989940594704Q1308.38402478648 393.5637785489989 1303.6718314309996 389.25140766004387Q1298.9596380755188 384.9390367710888 1293.5334760298138 382.2259557482363Q1288.1073139841087 379.5128747253837 1283.0809744049293 379.5128747253837L1283.0809744049293 379.5128747253837Q1281.0818620723012 379.5128747253837 1279.5682484490253 380.1126084251722Q1278.0831935733586 380.7123421249606 1276.6552561929097 381.6262220484478Q1275.25587756007 382.511543224326 1273.9421751700575 383.22551191455034Q1272.6570315276535 383.9394806047747 1270.8292716806795 383.9394806047747L1270.8292716806795 383.9394806047747Q1270.4294492141535 383.9394806047747 1270.4294492141535 383.7395693715119L1270.4294492141535 383.7395693715119Q1270.2295379808907 383.5110993906401 1270.0296267476278 383.3111881573773L1270.0296267476278 383.3111881573773Q1269.6298042811022 382.91136569085165 1268.9443943384872 382.31163199106317Q1268.2304256482626 381.7118982912747 1268.2304256482626 381.5119870580119L1268.2304256482626 381.5119870580119Q1268.2304256482626 377.9135848592812 1269.5441280382756 375.2861800792556Q1270.8292716806795 372.68733404683894 1273.1425302370062 371.0880441807364Q1275.4557887933329 369.46019556702487 1278.3687810494484 368.57487439114664Q1281.281773305564 367.6609944676595 1284.5089117853777 367.6609944676595L1284.5089117853777 367.6609944676595Q1292.5339198634997 368.46063940071076 1299.844959251397 372.573099056403Q1307.1845573869032 376.68555871209526 1313.2961293752237 382.91136569085165Q1319.436260111153 389.13717266960793 1324.0627772238067 397.27641573816555Q1328.6607355888518 405.4156588067232 1331.7736390782297 414.1546355750692Q1334.886542567608 422.89361234341527 1335.9146574815309 431.71826535458825L1335.9146574815309 431.71826535458825Q1337.1141248811082 440.94274083228686 1336.1145687147937 448.9963076580175L1336.1145687147937 448.9963076580175Q1335.9146574815309 448.9963076580175 1334.886542567608 448.8820726675816Q1333.886986401294 448.79639642475473 1332.6875190017172 448.6821614343188Q1331.4880516021403 448.59648519149187 1330.688406669089 448.39657395822906L1330.688406669089 448.39657395822906L1329.6888505027746 448.19666272496625Q1325.4621558566469 438.74371726639583 1320.2359050442042 432.9177327541652Q1315.009654231762 427.09174824193445 1309.897638409756 423.77893351929345Q1304.7856225877495 420.4661187966525 1300.3590167083585 419.18097515424864Q1295.9324108289675 417.86727276423585 1293.1336535632881 417.26753906444736L1293.1336535632881 417.26753906444736Q1290.1064263167368 417.26753906444736 1285.9939666610444 417.66736153097304Q1281.8815070053524 418.06718399749866 1277.4549011259614 419.0667401638127Q1273.0568539941792 420.0662963301268 1268.5445718719611 421.77982118666523Q1264.0037310021344 423.4933460432037 1260.4910050462308 425.89228084235754Q1256.9782790903269 428.29121564151137 1254.864931767263 431.6040303641523Q1252.7801431918078 434.91684508679333 1252.7801431918078 439.3434509661843L1252.7801431918078 439.3434509661843Q1252.7801431918078 444.16987931210093 1256.5784566238012 447.4826940347419Q1260.4053288034038 450.7955087573829 1265.8314908491088 452.908856080447Q1271.2290941472047 455.022203403511 1276.8551674261726 455.8218483365623Q1282.4812407051409 456.62149326961355 1285.9082904182178 456.62149326961355L1285.9082904182178 456.62149326961355Q1291.5343636971857 456.62149326961355 1296.9319669952815 456.0217595698251Q1302.3581290409866 455.4220258700367 1307.6986148438646 454.6223809369854Q1313.0105418991338 453.79417725632516 1318.236792711576 453.1944435565367Q1323.4630435240183 452.59470985674824 1328.6607355888518 452.59470985674824L1328.6607355888518 452.59470985674824Q1329.0605580553774 452.59470985674824 1330.0886729693002 452.59470985674824Q1331.0882291356147 452.59470985674824 1332.1734615447554 452.70894484718417Q1333.2872527015056 452.7946210900111 1334.2011326249926 452.7946210900111Q1335.086453800871 452.7946210900111 1335.4862762673965 452.7946210900111L1335.4862762673965 452.7946210900111Q1337.1141248811082 453.39435478979954 1337.314036114371 454.6223809369854Q1337.5139473476338 455.8218483365623 1337.5139473476338 457.02131573613923L1337.5139473476338 457.02131573613923Q1337.5139473476338 458.22078313571615 1335.0007775580439 459.6201617685559Q1332.4876077684544 461.04809914900454 1328.460824355589 462.4474777818443Q1324.4625996903324 463.846856414684 1319.52193635398 465.36047003795966Q1314.6098317652363 466.84552491362626 1310.0975496430187 467.87363982754937Q1305.5852675208007 468.8731959938634 1301.672719098371 469.5586059364788Q1297.760170675942 470.2725746267032 1296.1323220622303 470.2725746267032L1296.1323220622303 470.2725746267032Q1287.707491517583 470.2725746267032 1278.2831048066214 468.8731959938634Q1268.830159348051 467.47381736102375 1261.0050625031922 463.7326214242481Q1253.1799656583335 460.01998423508144 1248.0393910887183 453.39435478979954Q1242.9273752667118 446.7687253445175 1242.9273752667118 436.344782467242ZM1346.938334058595 424.6928134427806L1346.938334058595 424.6928134427806Q1346.938334058595 417.26753906444736 1348.8517701483966 409.01406100545387Q1350.7652062381976 400.7891416940694 1354.8776658938896 393.76368978226174Q1358.990125549582 386.73823787045416 1365.3301675187745 382.2259557482363Q1371.6416507403574 377.71367362601836 1380.8946849656654 377.71367362601836L1380.8946849656654 377.71367362601836Q1385.6925545639729 377.71367362601836 1390.5189829098895 379.1130522588581Q1395.345411255806 380.5124308916978 1400.4574270778126 383.11127692411446Q1405.5694428998186 385.73868170414005 1411.1098399359598 389.25140766004387Q1416.6216782244915 392.7641336159477 1422.8474852032482 396.9908282620758L1422.8474852032482 396.9908282620758Q1423.6471301362994 388.9372614363451 1422.2477515034598 380.4267546488709Q1420.8483728706196 371.88768911378764 1418.62079055712 363.63421105479415Q1416.4217669912287 355.40929174340965 1414.108508434902 348.06969360790333Q1411.7952498785753 340.75865422000595 1410.7956937122613 334.9326697077753Q1409.7961375459467 329.10668519554457 1410.595782478998 325.27981301594207Q1411.3954274120497 321.4814995839485 1415.422210824915 320.4819434176344L1415.422210824915 320.4819434176344Q1420.8483728706196 324.48016808289077 1424.7609212930493 331.8197662183971Q1428.6734697154789 339.1593643539034 1431.4722269811582 348.78366229812764Q1434.2995429944467 358.4365189899609 1436.098744093812 369.37451932419793Q1437.8979451931773 380.312519658435 1439.1259713403633 391.56466621637077Q1440.3254387399402 402.78825402669753 1441.0108486825557 413.44066688484486Q1441.7248173727799 424.0930797429922 1442.524462305831 433.03196774460105Q1443.3241072388823 441.97085574620996 1444.038075929107 448.2823389677932Q1444.723485871722 454.6223809369854 1446.1514232521708 457.22122696940204L1446.1514232521708 457.22122696940204Q1446.1514232521708 460.4198067016072 1443.8381646958442 461.2480103822674Q1441.524906139517 462.04765531531865 1439.1259713403633 462.04765531531865L1439.1259713403633 462.04765531531865Q1437.098300260126 462.04765531531865 1435.6989216272864 460.53404169204305Q1434.2995429944467 459.0204280687674 1433.4998980613955 457.02131573613923Q1432.7002531283442 455.022203403511 1431.9862844381196 452.50903361392136Q1431.2723157478954 449.99586382433165 1430.4726708148442 447.8825165012675Q1429.673025881793 445.76916917820347 1428.6734697154789 444.36979054536374Q1427.6739135491648 442.970411912524 1426.0746236830619 442.970411912524L1426.0746236830619 442.970411912524Q1425.6462424689275 442.970411912524 1424.960832526312 443.05608815535095Q1424.2468638360879 443.1703231457868 1424.2468638360879 443.37023437904963L1424.2468638360879 443.37023437904963Q1420.4485504040945 448.59648519149187 1415.3079758344788 453.5085897802354Q1410.1959600124724 458.42069436897896 1404.0843880241523 462.1333315581456Q1397.9442572882226 465.8459687473122 1391.2329516001137 468.0735510608122Q1384.493087164396 470.2725746267032 1377.6675464858513 470.2725746267032L1377.6675464858513 470.2725746267032Q1370.0423608742549 470.2725746267032 1364.3020526048513 465.2462350475238Q1358.5903030830564 460.2198954683443 1354.6777546606272 453.1944435565367Q1350.7652062381976 446.1689916447291 1348.8517701483966 438.3438947998702Q1346.938334058595 430.51879795501134 1346.938334058595 424.6928134427806ZM1359.3899480161076 428.29121564151137L1359.3899480161076 428.29121564151137Q1361.3890603487362 435.54513753419076 1363.0169089624474 440.94274083228686Q1364.6161988285503 446.3689028779919 1366.929457384877 449.7959525910688Q1369.2427159412036 453.1944435565367 1372.441295673409 454.90796841307514Q1375.6684341532232 456.62149326961355 1380.8946849656654 456.62149326961355L1380.8946849656654 456.62149326961355Q1387.3204031776845 456.62149326961355 1394.5457663227548 452.908856080447Q1401.7711294678252 449.19621889128035 1407.9969364465815 443.37023437904963Q1414.2227434253377 437.5442498668189 1418.2209680905944 430.6044741978383Q1422.2477515034598 423.6932572764665 1422.2477515034598 417.26753906444736L1422.2477515034598 417.26753906444736Q1422.2477515034598 416.66780536465893 1422.2477515034598 414.8400455176846Q1422.2477515034598 413.04084441831924 1422.2477515034598 412.44111071853075L1422.2477515034598 412.44111071853075Q1411.5953386453125 401.9886090936463 1402.6564506437035 397.4763269714284Q1393.7461213897036 392.9640448492105 1386.692110730287 392.8498098587746Q1379.6666588184794 392.7641336159477 1374.4689667536459 395.96271334815276Q1369.2427159412036 399.18985182796683 1365.8156662281272 404.41610264040906Q1362.417175262659 409.6423534528513 1360.7893266489473 416.06807166487044Q1359.1900367828448 422.4937898768896 1359.3899480161076 428.29121564151137Z " fill="#09c7c7" transform="matrix(0.6050542259103304,0,0,0.6050542259103305,0,60.711979042393835)"/></g></svg>